<?xml version="1.0" encoding="utf-8"?>
<!-- Generator: Adobe Illustrator 27.5.0, SVG Export Plug-In . SVG Version: 6.00 Build 0)  -->
<svg version="1.1" xmlns="http://www.w3.org/2000/svg" xmlns:xlink="http://www.w3.org/1999/xlink" x="0px" y="0px"
	 viewBox="0 0 499.999 500" style="enable-background:new 0 0 499.999 500;" xml:space="preserve">
<g id="BACKGROUND">
	<polygon style="opacity:0.2;fill:#DBF0FF;" points="53.499,120.444 83.499,321.626 417.498,348.323 446.498,105.055 	"/>
	<g>
		<g>
			<path style="fill:#71843C;" d="M408.828,137.156c-9.204,1.238,0.531,19.826,3.186,23.366c0.354-5.311,5.841-8.673,6.196-14.162
				c0.354-4.956-2.125-6.55-5.842-9.382L408.828,137.156z"/>
		</g>
		<g>
			<path style="fill:#71843C;" d="M400.766,108.573c-1.77-2.302-3.894-6.019-7.081-7.436c-3.717-1.593-8.32-0.708-11.684-3.363
				c2.302,7.612,11.152,19.119,19.827,12.568L400.766,108.573z"/>
		</g>
		<g>
			<path style="fill:#4C4844;" d="M390.167,110.35h53.59c0,0,4.244,30.573-26.585,33.031
				C417.172,143.38,388.181,143.38,390.167,110.35z"/>
		</g>
		<g>
			<g>
				<g>
					<rect x="416.392" style="fill:#EDDBC3;" width="1" height="59.76"/>
				</g>
			</g>
			<g>
				<g>
					<path style="fill:#EDDBC3;" d="M416.943,146.472c-0.22,0-0.421-0.145-0.482-0.367c-0.073-0.267,0.084-0.542,0.35-0.615
						c10.478-2.882,20.85-6.938,25.746-17.023c1.661-3.421,2.542-7.331,2.547-11.307c0-0.227,0.006-0.481,0.012-0.753
						c0.027-1.316,0.065-3.119-0.451-4.076c-0.354-0.66-28.212-52.334-28.212-52.334l0.881-0.475c0,0,27.857,51.675,28.212,52.334
						c0.641,1.189,0.6,3.144,0.569,4.571c-0.005,0.265-0.011,0.513-0.011,0.733c-0.005,4.127-0.92,8.187-2.647,11.742
						c-5.071,10.442-15.676,14.606-26.381,17.55C417.031,146.466,416.987,146.472,416.943,146.472z"/>
				</g>
			</g>
			<g>
				<g>
					<path style="fill:#EDDBC3;" d="M416.9,146.508c-0.055,0-0.109-0.009-0.164-0.027c-1.364-0.473-2.72-0.903-4.063-1.329
						c-4.837-1.534-9.406-2.983-13.707-6.123c-3.772-2.754-6.761-6.255-8.642-10.125c-1.726-3.556-2.641-7.616-2.646-11.742
						c0-0.224-0.006-0.475-0.011-0.745c-0.03-1.423-0.071-3.372,0.566-4.556c0.167-0.306,27.938-51.818,28.218-52.338
						c0.132-0.243,0.436-0.335,0.678-0.203c0.243,0.131,0.334,0.434,0.203,0.677c-1.146,2.125-28.053,52.034-28.219,52.34
						c-0.512,0.95-0.475,2.747-0.447,4.059c0.006,0.277,0.012,0.535,0.012,0.764c0.006,3.976,0.887,7.886,2.547,11.307
						c1.809,3.724,4.69,7.097,8.331,9.754c4.169,3.044,8.662,4.468,13.419,5.978c1.352,0.428,2.716,0.861,4.089,1.337
						c0.261,0.091,0.398,0.375,0.309,0.636C417.3,146.379,417.107,146.508,416.9,146.508z"/>
				</g>
			</g>
			<g>
				<g>
					<path style="fill:#EDDBC3;" d="M416.892,147.128c-0.276,0-0.5-0.224-0.5-0.5V59.76c0-0.276,0.224-0.5,0.5-0.5
						s0.5,0.224,0.5,0.5v86.868C417.392,146.905,417.168,147.128,416.892,147.128z"/>
				</g>
			</g>
			<g>
				<g>
					<path style="fill:#EDDBC3;" d="M414.871,61.199c0,1.114,0.905,2.018,2.02,2.018l0,0c1.115,0,2.019-0.904,2.019-2.018l0,0
						c0-1.115-0.904-2.018-2.019-2.018l0,0C415.776,59.181,414.871,60.083,414.871,61.199L414.871,61.199z"/>
				</g>
			</g>
			<g>
				<g>
					<path style="fill:#EDDBC3;" d="M443.757,113.571c0,1.019,0.825,1.847,1.847,1.847l0,0c1.02,0,1.847-0.828,1.847-1.847l0,0
						c0-1.021-0.827-1.846-1.847-1.846l0,0C444.582,111.725,443.757,112.549,443.757,113.571L443.757,113.571z"/>
				</g>
			</g>
			<g>
				<g>
					<path style="fill:#EDDBC3;" d="M390.167,113.571c0,1.019-0.827,1.847-1.847,1.847l0,0c-1.02,0-1.848-0.828-1.848-1.847l0,0
						c0-1.021,0.828-1.846,1.848-1.846l0,0C389.341,111.725,390.167,112.549,390.167,113.571L390.167,113.571z"/>
				</g>
			</g>
			<g>
				<path style="fill:#EDDBC3;" d="M419.749,115.798c-8.505,0-19.03-0.433-31.481-1.73l0.104-0.994
					c37.057,3.859,56.94,0.045,57.136,0.007l0.195,0.98C445.571,114.087,436.658,115.798,419.749,115.798z"/>
			</g>
			<g>
				<g>
					<path style="fill:#EDDBC3;" d="M416.11,146.074c0.01,1.486-1.174,2.23-1.975,3.315c-0.744,1.008-0.84,2.066-0.393,3.23
						c0.229,0.594,1.196,0.336,0.964-0.266c-0.995-2.586,2.421-3.709,2.403-6.279C417.106,145.43,416.106,145.429,416.11,146.074
						L416.11,146.074z"/>
				</g>
			</g>
			<g>
				<g>
					<path style="fill:#EDDBC3;" d="M415.98,146.057c0.649,2.068,1.43,4.101,1.621,6.278c0.056,0.636,1.057,0.642,1,0
						c-0.2-2.273-0.979-4.383-1.657-6.544C416.752,145.179,415.787,145.441,415.98,146.057L415.98,146.057z"/>
				</g>
			</g>
			<g>
				<g>
					<path style="fill:#EDDBC3;" d="M416.409,146.222c-0.211,2.485,2.944,3.021,3.448,5.203c0.145,0.627,1.109,0.362,0.964-0.266
						c-0.242-1.05-0.91-1.798-1.714-2.475c-0.796-0.67-1.798-1.292-1.698-2.463C417.464,145.581,416.463,145.585,416.409,146.222
						L416.409,146.222z"/>
				</g>
			</g>
		</g>
		<g>
			<g>
				<path style="fill:#4A6C3B;" d="M398.384,187.077c0,0,0.113-0.392,0.326-1.127c0.181-0.745,0.606-1.788,1.115-3.128
					c0.51-1.325,1.224-2.942,1.677-4.833c0.418-1.951,0.549-4.165,0.141-6.559c-0.205-1.189-0.504-2.417-0.924-3.658
					c-0.381-1.239-0.923-2.52-1.34-3.86c-0.255-0.648-0.392-1.372-0.533-2.106c-0.183-0.73-0.21-1.473-0.275-2.223
					c-0.11-1.503,0.015-3.033,0.159-4.568c0.324-3.058,0.845-6.177,0.538-9.313c-0.136-1.563-0.533-3.089-1.1-4.585
					c-0.293-0.747-0.592-1.495-0.921-2.239l-0.475-1.141c-0.135-0.404-0.285-0.857-0.339-1.291
					c-0.146-0.878-0.056-1.803,0.197-2.634c0.249-0.835,0.616-1.587,0.94-2.322c0.663-1.467,1.132-2.921,1.118-4.51
					c-0.085-2.96-2.393-5.66-2.848-8.82c-0.634-3.104-0.246-6.173,0.433-8.926c0.38-1.371,0.847-2.692,1.429-3.891
					c0.591-1.208,1.247-2.345,2.141-3.27c0.454-0.453,0.987-0.831,1.587-1.054c0.609-0.222,1.265-0.184,1.84-0.033
					c1.146,0.376,1.968,1.141,2.667,1.86c1.376,1.482,2.092,3.16,2.588,4.483c0.502,1.346,0.742,2.449,0.934,3.19
					c0.167,0.748,0.255,1.146,0.255,1.146s-0.107-0.394-0.307-1.133c-0.222-0.732-0.525-1.815-1.063-3.134
					c-0.55-1.313-1.279-2.889-2.675-4.295c-0.696-0.675-1.521-1.364-2.527-1.654c-0.502-0.104-1.034-0.132-1.536,0.063
					c-0.496,0.199-0.956,0.531-1.36,0.952c-1.557,1.764-2.585,4.294-3.265,6.946c-0.297,1.347-0.551,2.75-0.593,4.196
					c-0.06,0.72,0.001,1.452,0.004,2.184c0.088,0.722,0.106,1.436,0.298,2.193c0.252,1.495,0.855,2.837,1.531,4.284
					c0.648,1.439,1.348,2.952,1.399,4.762c0.034,1.647-0.493,3.361-1.165,4.847c-0.676,1.495-1.316,2.931-1.035,4.414
					c0.045,0.378,0.155,0.706,0.271,1.076l0.458,1.123c0.326,0.751,0.627,1.518,0.923,2.289c0.576,1.547,0.992,3.19,1.123,4.834
					c0.296,3.293-0.267,6.48-0.604,9.495c-0.36,3.023-0.338,5.934,0.479,8.58c0.39,1.351,0.891,2.599,1.261,3.893
					c0.4,1.269,0.682,2.535,0.867,3.763c0.386,2.45,0.154,4.801-0.332,6.718c-0.542,1.959-1.303,3.515-1.861,4.834
					c-0.544,1.315-1.031,2.33-1.242,3.069C398.515,186.69,398.384,187.077,398.384,187.077z"/>
			</g>
			<g>
				<path style="fill:#4A6C3B;" d="M397.499,138.395c0,0,0.059,0.138,0.147,0.38c0.066,0.251,0.248,0.572,0.268,1.03
					c0.018,0.228,0.037,0.482,0.039,0.753c0.026,0.279-0.049,0.538-0.092,0.824c-0.059,0.279-0.082,0.585-0.209,0.857
					c-0.107,0.28-0.217,0.564-0.326,0.848c-0.151,0.26-0.303,0.521-0.452,0.777c-0.135,0.267-0.337,0.479-0.505,0.702
					c-0.335,0.449-0.713,0.806-1.043,1.102c-0.317,0.307-0.64,0.501-0.848,0.653c-0.215,0.144-0.343,0.218-0.343,0.218
					s0.069-0.135,0.2-0.356c0.134-0.214,0.325-0.52,0.555-0.888c0.111-0.184,0.231-0.381,0.368-0.58
					c0.14-0.198,0.244-0.433,0.387-0.65c0.286-0.439,0.517-0.935,0.782-1.413c0.203-0.5,0.457-0.986,0.58-1.476
					c0.058-0.242,0.19-0.477,0.206-0.697c0.035-0.222,0.083-0.435,0.129-0.638c0.103-0.403,0.06-0.792,0.106-1.042
					C397.475,138.542,397.499,138.395,397.499,138.395z"/>
			</g>
			<g>
				<path style="fill:#88A449;" d="M396.968,141.405c-1.947-2.124-6.727-0.178-7.965,2.654c3.008-0.53,6.903,1.594,8.497-2.478
					L396.968,141.405z"/>
			</g>
			<g>
				<path style="fill:#7B9245;" d="M397.676,120.87c-3.363,0.177-4.602,4.249-4.072,7.612c0.708,3.362,3.01,6.55,4.249,9.736
					c1.063,3.187,1.948,6.373,2.833,9.559c0.708-5.842,12.921-28.855-0.885-28.147L397.676,120.87z"/>
			</g>
			<g>
				<g>
					<path style="fill:#88A449;" d="M395.198,115.382c-9.206-4.603-10.622,15.047-12.746,19.473
						c3.186-0.531,5.841-2.301,8.851-3.718c2.656-1.238,7.081-1.947,9.028-4.602c2.301-3.009,0.531-9.028-2.655-10.975
						L395.198,115.382z"/>
				</g>
				<g style="opacity:0.6;">
					<g>
						<path style="fill:#4A6C3B;" d="M396.083,116.09c-0.204,0.055-0.401,0.14-0.566,0.237c-0.168,0.109-0.318,0.233-0.44,0.386
							c-0.247,0.301-0.39,0.67-0.526,1.043c-0.256,0.758-0.409,1.577-0.73,2.403l0.015-0.038c-0.328,0.923-0.678,1.844-1.043,2.758
							c-0.461,0.865-0.936,1.726-1.432,2.57c-0.566,0.797-1.148,1.583-1.749,2.348c-0.652,0.725-1.329,1.426-2.026,2.101
							c0.486-0.848,0.992-1.669,1.523-2.467c0.475-0.836,0.962-1.655,1.468-2.459c0.423-0.851,0.87-1.685,1.321-2.518
							c0.356-0.874,0.728-1.742,1.121-2.606l0.015-0.039c0.351-0.699,0.596-1.509,1.008-2.278c0.2-0.385,0.469-0.758,0.821-1.041
							c0.175-0.142,0.377-0.245,0.583-0.322C395.665,116.1,395.872,116.088,396.083,116.09z"/>
					</g>
				</g>
			</g>
			<g>
				<g>
					<path style="fill:#7B9245;" d="M398.738,152.025c-9.913,1.416-6.727,12.568-10.975,18.411
						c4.248-4.957,13.454-4.249,15.578-11.86c0.885-3.364,0-7.612-4.249-7.258L398.738,152.025z"/>
				</g>
				<g style="opacity:0.6;">
					<g>
						<path style="fill:#4A6C3B;" d="M398.915,152.025c0,0,0.049,0.728-0.014,1.801c-0.029,0.538-0.072,1.161-0.187,1.833
							c-0.06,0.334-0.092,0.684-0.199,1.031c-0.097,0.348-0.178,0.705-0.292,1.055c-0.142,0.342-0.283,0.684-0.422,1.021
							c-0.138,0.337-0.362,0.629-0.531,0.931c-0.091,0.147-0.181,0.292-0.269,0.434c-0.108,0.127-0.214,0.251-0.317,0.373
							c-0.203,0.243-0.405,0.464-0.59,0.664c-0.181,0.205-0.398,0.345-0.566,0.489c-0.176,0.135-0.329,0.253-0.456,0.35
							c-0.255,0.188-0.406,0.286-0.406,0.286s0.096-0.155,0.264-0.425c0.087-0.129,0.192-0.287,0.314-0.467
							c0.116-0.182,0.274-0.364,0.403-0.593c0.128-0.23,0.267-0.477,0.422-0.727c0.165-0.246,0.305-0.523,0.435-0.816
							c0.134-0.292,0.29-0.581,0.415-0.891c0.118-0.314,0.238-0.632,0.358-0.951c0.117-0.321,0.203-0.656,0.305-0.979
							c0.104-0.321,0.19-0.65,0.272-0.967c0.179-0.628,0.327-1.235,0.483-1.747C398.635,152.7,398.915,152.025,398.915,152.025z"/>
					</g>
				</g>
			</g>
			<g>
				<g>
					<path style="fill:#88A449;" d="M400.686,167.958c-2.655,1.947-3.895,4.248-2.479,7.612c1.239,3.01,4.249,5.665,5.842,8.497
						c1.238,1.77,1.947,4.248,3.541,5.488c1.948-2.656,3.54-6.018,5.311-9.028c1.415-2.301,2.3-4.249,1.238-6.904
						c-1.77-4.779-6.328-7.434-11.316-5.664H400.686z"/>
				</g>
				<g style="opacity:0.6;">
					<g>
						<path style="fill:#4A6C3B;" d="M402.633,167.958c0,0,0.187,0.062,0.515,0.17c0.164,0.05,0.354,0.139,0.57,0.261
							c0.226,0.11,0.466,0.255,0.703,0.442c0.501,0.347,1.003,0.863,1.463,1.468c0.219,0.311,0.452,0.629,0.633,0.984
							c0.202,0.344,0.357,0.715,0.527,1.079c0.142,0.375,0.284,0.75,0.394,1.127c0.13,0.372,0.193,0.753,0.284,1.114
							c0.144,0.73,0.234,1.417,0.26,2.008c0.071,1.181-0.038,1.968-0.038,1.968s-0.228-0.76-0.529-1.875
							c-0.151-0.558-0.343-1.199-0.546-1.88c-0.225-0.674-0.455-1.392-0.749-2.08c-0.147-0.341-0.281-0.693-0.456-1.012
							c-0.163-0.328-0.329-0.645-0.508-0.943c-0.363-0.588-0.737-1.123-1.118-1.534c-0.185-0.214-0.361-0.401-0.531-0.55
							c-0.165-0.157-0.312-0.305-0.454-0.404C402.785,168.083,402.633,167.958,402.633,167.958z"/>
					</g>
				</g>
			</g>
			<g>
				<path style="fill:#88A449;" d="M405.486,102.105c-2.125,1.948-4.78,4.072-4.249,7.612c0.531,4.072,3.894,7.966,4.956,12.039
					c1.063,3.362,1.417,6.902,2.302,10.089c1.593-6.195,5.665-11.152,6.196-17.702c0.353-6.019-2.656-7.79-7.081-11.153
					L405.486,102.105z"/>
			</g>
		</g>
		<g>
			<g>
				<path style="fill:#4A6C3B;" d="M429.15,114.076c0.026-0.159,0.072-0.319,0.038-0.478c-0.003-0.159-0.06-0.311-0.104-0.464
					c-0.104-0.302-0.257-0.583-0.424-0.856c-0.341-0.54-0.752-1.034-1.198-1.491c-0.446-0.455-0.929-0.878-1.452-1.234
					c-0.517-0.351-1.088-0.666-1.658-0.757h0l-0.017-0.003c-1.151-0.225-2.353-0.211-3.405,0.258
					c-1.056,0.451-1.91,1.283-2.572,2.238c-0.656,0.966-1.151,2.048-1.534,3.169c-0.399,1.116-0.688,2.277-0.92,3.448
					c-0.223,1.173-0.384,2.361-0.479,3.553c-0.045,0.582-0.085,1.223-0.088,1.758l0.079,1.817c0.036,0.603,0.033,1.217,0.1,1.811
					l0.198,1.782c0.092,1.188,0.304,2.381,0.479,3.572c0.162,1.193,0.419,2.378,0.627,3.568c0.213,1.19,0.476,2.377,0.617,3.614
					c0.138,1.227,0.202,2.5-0.062,3.755c-0.254,1.245-0.924,2.431-1.616,3.387c-0.692,0.981-1.118,2.018-0.995,3.204
					c0.034,0.281,0.046,0.607,0.098,0.852l0.216,0.883c0.156,0.585,0.336,1.139,0.527,1.714c0.392,1.139,0.835,2.276,1.19,3.442
					c0.371,1.164,0.555,2.382,0.598,3.593c-0.136-1.208-0.404-2.386-0.825-3.518c-0.415-1.134-0.914-2.233-1.373-3.364
					c-0.223-0.564-0.453-1.153-0.622-1.734l-0.246-0.875c-0.082-0.345-0.094-0.63-0.144-0.949c-0.199-1.258,0.301-2.627,0.982-3.625
					c0.688-1.033,1.188-2.016,1.399-3.168c0.204-1.134,0.151-2.313,0.001-3.486c-0.146-1.172-0.419-2.354-0.647-3.547
					c-0.222-1.196-0.494-2.38-0.671-3.588c-0.19-1.206-0.417-2.4-0.527-3.63c-0.135-1.225-0.256-2.448-0.265-3.655l-0.06-1.818
					c0.01-0.676,0.058-1.247,0.111-1.872c0.111-1.224,0.29-2.44,0.533-3.646c0.502-2.397,1.248-4.816,2.736-6.863
					c0.747-1.005,1.723-1.903,2.928-2.372c1.2-0.481,2.535-0.466,3.737-0.155l-0.018-0.004c0.707,0.156,1.27,0.531,1.797,0.925
					c0.525,0.4,0.994,0.861,1.426,1.351c0.429,0.493,0.825,1.016,1.137,1.591c0.15,0.29,0.286,0.589,0.37,0.906
					c0.034,0.16,0.08,0.317,0.071,0.485C429.245,113.766,429.188,113.919,429.15,114.076z"/>
			</g>
			<g>
				<path style="fill:#88A449;" d="M416.258,144.833c0.412,0.79,1.24,2.373,1.452,3.102c0.574,2.387-1.394,4.085-1.152,6.478
					C414.56,150.586,413.798,148.802,416.258,144.833L416.258,144.833z"/>
			</g>
			<g>
				<path style="fill:#7B9245;" d="M423.345,107.826c-1.786-11.46-18.306,2.529-20.836-1.787c1.041,4.168,5.507,2.829,8.482,2.53
					c3.274-0.446,6.4,0,9.526,0L423.345,107.826z"/>
			</g>
			<g>
				<g>
					<path style="fill:#7B9245;" d="M418.137,111.397c0.743,2.53,0.595,4.465-1.34,6.698c-2.083,2.232-4.911,3.274-7.293,5.06
						c-1.935,1.488-3.72,3.275-5.358,5.061c-0.892-9.079,3.423-16.372,12.799-16.372L418.137,111.397z"/>
				</g>
				<g style="opacity:0.6;">
					<g>
						<path style="fill:#4A6C3B;" d="M418.137,112.141c0,0-0.161,0.112-0.441,0.309c-0.277,0.196-0.713,0.433-1.16,0.782
							c-0.229,0.167-0.476,0.347-0.742,0.522c-0.255,0.2-0.525,0.411-0.804,0.629c-0.289,0.202-0.563,0.444-0.846,0.684
							c-0.282,0.24-0.583,0.467-0.858,0.724c-0.561,0.503-1.128,0.998-1.63,1.498c-0.248,0.253-0.521,0.468-0.738,0.71
							c-0.223,0.237-0.444,0.454-0.65,0.654c-0.418,0.396-0.721,0.766-0.971,1c-0.247,0.239-0.388,0.375-0.388,0.375
							s0.082-0.178,0.224-0.488c0.159-0.3,0.35-0.763,0.684-1.244c0.322-0.49,0.703-1.067,1.197-1.612
							c0.25-0.27,0.47-0.586,0.763-0.84c0.28-0.267,0.565-0.537,0.851-0.808c0.295-0.259,0.617-0.488,0.92-0.729
							c0.298-0.247,0.62-0.454,0.937-0.644c0.615-0.402,1.237-0.719,1.792-0.943c0.536-0.261,1.01-0.355,1.338-0.453
							C417.947,112.188,418.137,112.141,418.137,112.141z"/>
					</g>
				</g>
			</g>
			<g>
				<path style="fill:#88A449;" d="M416.039,155.892c-1.861,1.364-1.365,4.839-1.365,7.072c0.62-2.108,1.985-4.218,1.861-6.452
					L416.039,155.892z"/>
			</g>
			<g>
				<path style="fill:#7B9245;" d="M415.331,136.912c-0.247,4.714,3.847,6.577,6.08,10.174c0.248-3.102,2.109-6.08,0.248-9.058
					c-1.489-2.606-3.226-1.985-5.336-2.979L415.331,136.912z"/>
			</g>
			<g>
				<g>
					<path style="fill:#88A449;" d="M415.011,124.94c9.079,1.339-0.149,15.479-3.422,19.497c-2.232-3.126-4.465-8.93-3.869-12.949
						c0.743-4.315,3.272-5.209,6.696-6.995L415.011,124.94z"/>
				</g>
				<g style="opacity:0.6;">
					<g>
						<path style="fill:#4A6C3B;" d="M414.713,124.94c0,0-0.093,0.583-0.352,1.401c-0.064,0.205-0.132,0.427-0.217,0.656
							c-0.095,0.229-0.134,0.479-0.215,0.726c-0.137,0.501-0.316,1.019-0.495,1.536c-0.144,0.531-0.273,1.067-0.436,1.563
							c-0.062,0.251-0.182,0.484-0.218,0.72c-0.047,0.233-0.104,0.454-0.158,0.658c-0.209,0.816-0.439,1.373-0.439,1.373
							s-0.107-0.57-0.13-1.444c-0.008-0.218-0.015-0.456-0.009-0.707c-0.012-0.253,0.051-0.509,0.092-0.778
							c0.086-0.538,0.21-1.108,0.342-1.675c0.21-0.547,0.417-1.096,0.644-1.593c0.204-0.513,0.484-0.92,0.722-1.279
							C414.318,125.38,414.713,124.94,414.713,124.94z"/>
					</g>
				</g>
			</g>
		</g>
		<g>
			<g>
				<path style="fill:#4A6C3B;" d="M423.698,109.895c-0.044-0.187-0.111-0.37-0.084-0.567c-0.01-0.198,0.046-0.385,0.087-0.575
					c0.101-0.375,0.264-0.73,0.444-1.073c0.374-0.681,0.847-1.3,1.358-1.883c0.514-0.58,1.074-1.123,1.698-1.596
					c0.626-0.464,1.297-0.905,2.125-1.084l-0.018,0.003c1.425-0.362,3.001-0.378,4.414,0.194c1.419,0.556,2.568,1.618,3.449,2.809
					c1.753,2.425,2.633,5.295,3.228,8.14c0.287,1.432,0.498,2.876,0.629,4.329c0.063,0.739,0.119,1.425,0.13,2.216l-0.073,2.162
					c-0.035,0.722-0.024,1.439-0.097,2.165l-0.221,2.177c-0.129,1.459-0.397,2.88-0.622,4.312c-0.21,1.436-0.531,2.844-0.794,4.266
					c-0.27,1.42-0.595,2.826-0.767,4.226c-0.178,1.4-0.241,2.812,0.007,4.172c0.255,1.379,0.867,2.567,1.685,3.789
					c0.371,0.622,0.781,1.268,0.979,2.019c0.143,0.36,0.142,0.752,0.213,1.126c-0.009,0.376,0.017,0.758-0.025,1.127
					c-0.058,0.376-0.072,0.719-0.168,1.119l-0.289,1.043c-0.201,0.692-0.469,1.39-0.732,2.061c-0.539,1.346-1.128,2.658-1.616,4.009
					c-0.495,1.35-0.806,2.754-0.959,4.191c0.061-1.439,0.287-2.885,0.732-4.266c0.428-1.383,0.96-2.732,1.433-4.087
					c0.23-0.683,0.448-1.345,0.635-2.04l0.26-1.05c0.064-0.301,0.079-0.685,0.121-1.022c0.154-1.419-0.358-2.683-1.18-3.853
					c-0.822-1.144-1.603-2.534-1.901-4.007c-0.309-1.482-0.234-2.987-0.069-4.441c0.168-1.466,0.482-2.877,0.738-4.292
					c0.248-1.415,0.556-2.825,0.75-4.246c0.209-1.418,0.463-2.837,0.574-4.254l0.234-2.125c0.079-0.708,0.075-1.437,0.117-2.155
					l0.092-2.161c-0.004-0.65-0.053-1.405-0.107-2.102c-0.115-1.421-0.308-2.836-0.575-4.235c-0.279-1.396-0.624-2.78-1.102-4.111
					c-0.46-1.338-1.055-2.628-1.844-3.783c-0.796-1.141-1.823-2.137-3.093-2.675c-1.264-0.559-2.707-0.573-4.081-0.297l-0.018,0.003
					c-0.17,0.047-0.345,0.062-0.515,0.131c-0.168,0.07-0.344,0.119-0.506,0.213c-0.334,0.16-0.653,0.36-0.964,0.572
					c-0.622,0.427-1.195,0.934-1.725,1.479c-0.528,0.546-1.016,1.137-1.419,1.783c-0.197,0.325-0.378,0.662-0.499,1.023
					c-0.051,0.183-0.118,0.364-0.12,0.554C423.61,109.516,423.666,109.706,423.698,109.895z"/>
			</g>
			<g>
				<path style="fill:#88A449;" d="M437.506,162.273c0,1.063,0,3.186,0.177,4.071c0.708,2.833,3.718,3.541,4.78,6.195
					C442.463,167.407,442.286,165.105,437.506,162.273L437.506,162.273z"/>
			</g>
			<g>
				<path style="fill:#7B9245;" d="M430.602,102.459c2.124-13.63,21.774,3.01,24.783-2.124c-1.239,4.957-6.549,3.364-10.089,3.009
					c-3.896-0.531-7.613,0-11.331,0L430.602,102.459z"/>
			</g>
			<g>
				<path style="fill:#4A6C3B;" d="M439.984,157.159c0,0,0.231,0.408,0.486,1.003c0.127,0.29,0.276,0.629,0.435,0.992
					c0.165,0.351,0.336,0.714,0.54,1.046c0.391,0.675,0.916,1.188,1.451,1.479c0.127,0.084,0.262,0.125,0.377,0.189
					c0.116,0.061,0.225,0.095,0.315,0.129c0.181,0.069,0.29,0.118,0.29,0.118s-0.107,0.035-0.306,0.08
					c-0.1,0.02-0.223,0.056-0.365,0.049c-0.141-0.003-0.311,0.023-0.486-0.019c-0.358-0.045-0.78-0.19-1.165-0.458
					c-0.179-0.143-0.388-0.282-0.534-0.474c-0.165-0.179-0.301-0.379-0.435-0.58c-0.232-0.419-0.413-0.854-0.513-1.274
					c-0.102-0.418-0.154-0.813-0.163-1.151C439.883,157.611,439.984,157.159,439.984,157.159z"/>
			</g>
			<g>
				<g>
					<path style="fill:#88A449;" d="M427.062,109.009c-10.268-4.956-3.895,21.065-2.478,24.251
						c4.248-3.54,9.735-10.975,10.443-16.64c0.532-4.602-1.77-5.311-5.133-7.435L427.062,109.009z"/>
				</g>
				<g style="opacity:0.6;">
					<g>
						<path style="fill:#4A6C3B;" d="M426.884,109.009c0,0,0.344,0.386,0.739,1.018c0.099,0.158,0.211,0.327,0.308,0.516
							c0.08,0.201,0.169,0.414,0.243,0.642c0.161,0.449,0.317,0.948,0.437,1.442c0.075,0.495,0.153,0.989,0.19,1.457
							c0.057,0.465,0.04,0.906,0.013,1.283c-0.042,0.753-0.16,1.253-0.16,1.253s-0.218-0.478-0.411-1.19
							c-0.05-0.178-0.103-0.371-0.146-0.575c-0.041-0.205-0.121-0.414-0.167-0.637c-0.119-0.44-0.207-0.914-0.298-1.387
							c-0.092-0.465-0.218-0.91-0.285-1.352c-0.045-0.217-0.07-0.435-0.099-0.641c-0.057-0.204-0.107-0.401-0.149-0.583
							C426.921,109.529,426.884,109.009,426.884,109.009z"/>
					</g>
				</g>
			</g>
			<g>
				<g>
					<path style="fill:#88A449;" d="M440.515,122.817c-10.798,1.593,0.177,18.41,4.071,23.19c2.655-3.718,5.31-10.622,4.602-15.401
						c-0.885-5.134-3.893-6.196-7.965-8.32L440.515,122.817z"/>
				</g>
				<g style="opacity:0.6;">
					<g>
						<path style="fill:#4A6C3B;" d="M440.869,122.816c0,0,0.441,0.537,0.983,1.399c0.272,0.432,0.597,0.923,0.832,1.532
							c0.261,0.591,0.506,1.241,0.752,1.889c0.159,0.671,0.307,1.346,0.416,1.981c0.051,0.318,0.131,0.62,0.122,0.92
							c0.011,0.296,0.009,0.578,0.005,0.836c-0.006,1.034-0.101,1.711-0.101,1.711s-0.242-0.663-0.469-1.64
							c-0.059-0.244-0.12-0.507-0.172-0.787c-0.039-0.282-0.175-0.562-0.248-0.862c-0.187-0.592-0.34-1.233-0.51-1.869
							c-0.215-0.619-0.432-1.237-0.603-1.833c-0.099-0.294-0.152-0.591-0.268-0.861c-0.105-0.271-0.193-0.532-0.273-0.774
							C441.009,123.496,440.869,122.816,440.869,122.816z"/>
					</g>
				</g>
			</g>
			<g>
				<g>
					<path style="fill:#7B9245;" d="M436.797,106.707c-0.885,3.01-0.707,5.311,1.593,7.966c2.479,2.656,5.842,3.894,8.675,6.018
						c2.3,1.771,4.425,3.895,6.372,6.02c1.063-10.799-4.071-19.473-15.223-19.473L436.797,106.707z"/>
				</g>
				<g style="opacity:0.6;">
					<g>
						<path style="fill:#4A6C3B;" d="M436.797,107.593c0,0,0.223,0.062,0.614,0.169c0.386,0.125,0.946,0.251,1.575,0.57
							c0.319,0.146,0.667,0.306,1.03,0.489c0.348,0.2,0.71,0.416,1.078,0.652c0.375,0.228,0.753,0.477,1.107,0.77
							c0.357,0.287,0.738,0.559,1.088,0.867c0.339,0.32,0.677,0.64,1.011,0.955c0.347,0.301,0.613,0.673,0.91,0.991
							c0.285,0.33,0.571,0.639,0.795,0.972c0.237,0.322,0.451,0.634,0.647,0.921c0.406,0.564,0.644,1.105,0.841,1.456
							c0.179,0.362,0.282,0.57,0.282,0.57s-0.162-0.166-0.446-0.457c-0.288-0.286-0.638-0.734-1.127-1.213
							c-0.241-0.243-0.5-0.505-0.762-0.791c-0.255-0.292-0.577-0.552-0.87-0.855c-0.307-0.291-0.604-0.61-0.94-0.899
							c-0.329-0.296-0.663-0.597-0.997-0.897c-0.329-0.306-0.689-0.575-1.026-0.861c-0.338-0.286-0.668-0.57-1.015-0.81
							c-0.336-0.256-0.66-0.505-0.967-0.74c-0.321-0.207-0.619-0.416-0.896-0.61c-0.54-0.407-1.062-0.675-1.396-0.899
							C436.991,107.72,436.797,107.593,436.797,107.593z"/>
					</g>
				</g>
			</g>
			<g>
				<g>
					<path style="fill:#7B9245;" d="M438.037,142.467c-3.01,0.53-5.134-0.532-7.612,2.655c-3.895,4.958-1.948,13.631-3.363,19.65
						c5.31-2.656,11.86-4.426,13.808-10.622c1.416-3.894,1.239-8.319-2.832-10.444V142.467z"/>
				</g>
				<g>
					<g style="opacity:0.6;">
						<g>
							<path style="fill:#4A6C3B;" d="M437.593,143.175c0,0-0.417,0.814-1.108,1.972c-0.34,0.576-0.738,1.247-1.164,1.967
								c-0.222,0.353-0.428,0.73-0.636,1.111c-0.207,0.382-0.443,0.757-0.632,1.154c-0.408,0.781-0.798,1.568-1.12,2.329
								c-0.17,0.376-0.342,0.739-0.464,1.098c-0.131,0.356-0.267,0.69-0.395,1c-0.136,0.308-0.207,0.605-0.303,0.861
								c-0.091,0.258-0.17,0.484-0.235,0.67c-0.143,0.372-0.225,0.585-0.225,0.585s0.011-0.227,0.03-0.623
								c0.016-0.199,0.035-0.44,0.058-0.717c0.034-0.275,0.036-0.596,0.122-0.926c0.153-0.663,0.276-1.467,0.593-2.267
								c0.153-0.401,0.272-0.834,0.467-1.241c0.194-0.407,0.392-0.821,0.589-1.234c0.208-0.408,0.461-0.79,0.686-1.179
								c0.221-0.393,0.48-0.751,0.729-1.097c0.487-0.701,0.991-1.316,1.44-1.828C436.912,143.783,437.593,143.175,437.593,143.175z"
								/>
						</g>
					</g>
				</g>
			</g>
		</g>
	</g>
	<g>
		<g>
			<path style="fill:#DBA52C;" d="M108.451,50.002c0-18.13,14.697-32.827,32.827-32.827c18.131,0,32.827,14.697,32.827,32.827
				s-14.696,32.826-32.827,32.826C123.149,82.828,108.451,68.133,108.451,50.002z"/>
		</g>
		<g>
			<path style="fill:#FFFFFF;" d="M113.648,50.002c0-15.26,12.371-27.629,27.63-27.629c15.259,0,27.629,12.369,27.629,27.629
				c0,15.259-12.37,27.63-27.629,27.63C126.019,77.632,113.648,65.262,113.648,50.002z"/>
		</g>
		<g>
			<g>
				<path style="fill:#2F2E26;" d="M139.139,52.861c0-1.703,1.379-3.083,3.082-3.083c1.703,0,3.084,1.38,3.084,3.083
					c0,1.703-1.381,3.083-3.084,3.083C140.518,55.945,139.139,54.564,139.139,52.861z"/>
			</g>
			<g>
				<rect x="141.155" y="31.987" style="fill:#2F2E26;" width="1.888" height="21.846"/>
			</g>
			<g>
				<polygon style="fill:#2F2E26;" points="142.226,52.861 126.314,50.755 126.494,48.876 142.408,50.981 				"/>
			</g>
		</g>
	</g>
</g>
<g id="OBJECTS">
	<g>
		<path style="opacity:0.41;fill:#DCF4FF;" d="M271.376,411.586c-106.642,0-193.093,6.615-193.093,14.776
			c0,0.943,1.169,1.866,3.378,2.76c-38.387,4.04-64.57,12.099-64.57,21.384c0,13.334,53.994,24.144,120.599,24.144
			s120.6-10.81,120.6-24.144c0-3.362-3.436-6.563-9.636-9.47c7.454,0.067,15.033,0.102,22.722,0.102
			c106.642,0,193.093-6.615,193.093-14.776C464.469,418.202,378.018,411.586,271.376,411.586z"/>
		<g>
			<g>
				<g>
					<g>
						<path style="fill:#242221;" d="M426.263,229.891c0,0.372-0.604,0.675-1.35,0.675h-26.561c-0.746,0-1.35-0.303-1.35-0.675l0,0
							c0-0.373,0.603-0.675,1.35-0.675h26.561C425.66,229.216,426.263,229.518,426.263,229.891L426.263,229.891z"/>
					</g>
					<g>
						<path style="fill:#242221;" d="M426.318,234.488v0.007c-0.902,0.001-1.633,0.732-1.633,1.635c0,0.902,0.732,1.634,1.635,1.634
							c0.842,0,1.527-0.639,1.617-1.457c5.977,1.213,10.471,6.382,10.471,12.588c0,6.757-5.32,12.297-12.088,12.829v1.578
							c7.656-0.536,13.697-6.78,13.697-14.407C440.017,241.268,433.974,235.022,426.318,234.488z"/>
					</g>
					<g>
						<path style="fill:#242221;" d="M412.131,266.236c0,0.311-0.223,0.561-0.498,0.561l0,0c-0.273,0-0.496-0.251-0.496-0.561
							v-49.186c0-0.31,0.223-0.562,0.496-0.562l0,0c0.275,0,0.498,0.252,0.498,0.562V266.236z"/>
					</g>
					<g>
						<circle style="fill:#242221;" cx="411.633" cy="217.517" r="3.213"/>
					</g>
					<g style="opacity:0.5;">
						<g>
							<path style="fill:#D6E5EA;" d="M396.947,224.091v1.874l-2.297,1.87l2.297,1.204v39.739c0,0,0,0.17,0,0.444
								c0,0.376,0,0.954,0,1.61c0,1.136,1.873,2.816,3.371,2.816h22.633c1.498,0,3.369-1.681,3.369-2.816c0-0.656,0-1.234,0-1.61
								c0-0.274,0-0.444,0-0.444v-44.687H396.947z"/>
						</g>
					</g>
					<g style="opacity:0.8;">
						<g>
							<path style="fill:#D6E5EA;" d="M426.32,266.413c-0.206-3.527-0.303-7.054-0.383-10.581
								c-0.091-3.527-0.104-7.054-0.117-10.581c0.011-3.527,0.025-7.054,0.115-10.581l0.139-5.29
								c0.083-1.763,0.132-3.527,0.245-5.29c0.113,1.763,0.162,3.527,0.245,5.29l0.139,5.29c0.091,3.527,0.104,7.054,0.115,10.581
								c-0.013,3.527-0.025,7.054-0.117,10.581C426.623,259.359,426.526,262.886,426.32,266.413z"/>
						</g>
					</g>
					<g style="opacity:0.8;">
						<g>
							<path style="fill:#D6E5EA;" d="M396.947,225.965c-0.73,0.667-1.467,1.326-2.21,1.976l-0.023-0.228l2.344,1.113l0.125,0.059
								l0.003,0.153c0.071,3.312,0.201,6.623,0.203,9.935c0.012,3.312,0.088,6.623,0.036,9.935
								c-0.038,3.312-0.022,6.623-0.127,9.935c-0.069,3.312-0.173,6.623-0.351,9.935c-0.177-3.312-0.281-6.623-0.351-9.935
								c-0.106-3.312-0.089-6.623-0.127-9.935c-0.052-3.312,0.024-6.623,0.036-9.935c0.002-3.312,0.131-6.623,0.203-9.935
								l0.128,0.212l-2.249-1.295l-0.184-0.106l0.161-0.122C395.351,227.132,396.146,226.544,396.947,225.965z"/>
						</g>
					</g>
					<g>
						<g>
							<path style="fill:#DEC699;" d="M424.56,232.505h-25.855v6.12c6.086,0,19.164,0,25.855,0V232.505z"/>
						</g>
						<g>
							<path style="fill:#352628;" d="M398.705,238.625c0,0,0,30.134,0,30.153c0,2.004,0.688,3.341,2.969,3.341
								c5.199,0,17.854,0.078,18.967,0.005c2.106-0.14,3.918-0.821,3.92-3.592c0.004-1.89,0-3.779,0-5.669c0-6.46,0-12.922,0-19.383
								c0-1.618,0-3.237,0-4.855C417.869,238.625,404.791,238.625,398.705,238.625z"/>
						</g>
					</g>
					<g>
						<path style="fill:#242221;" d="M427.392,223.861c0,0.803-0.652,1.453-1.455,1.453h-28.609c-0.803,0-1.453-0.65-1.453-1.453
							l0,0c0-0.803,0.65-1.454,1.453-1.454h28.609C426.74,222.407,427.392,223.059,427.392,223.861L427.392,223.861z"/>
					</g>
					<g>
						<rect x="396.947" y="234.451" style="fill:#97979A;" width="29.373" height="3.099"/>
					</g>
					<g>
						<path style="fill:none;stroke:#795E44;stroke-miterlimit:10;" d="M426.32,236.13"/>
					</g>
				</g>
				<g>
					<g>
						<g>
							<g>
								<g>
									<g>
										<path style="fill:#EFE9DA;" d="M408.067,260.325c-2.23,0.005-5.036-0.443-5.12,0.78c-0.074,1.101-0.15,2.202-0.153,3.308
											c-0.005,1.108,0.161,2.207,0.148,3.314c-0.028,2.517,3.023,1.523,4.417,0.773c0.833-0.451,1.661-1.103,2.261-1.836
											c0.479-0.587,0.83-1.477,0.967-2.409C410.869,262.369,410.271,260.323,408.067,260.325z M409.366,264.173
											c-0.104,0.699-0.364,1.358-0.691,1.76c-0.45,0.551-1.103,1.083-1.797,1.456c-0.606,0.325-1.507,0.659-2.152,0.658
											c-0.222,0.003-0.391-0.037-0.458-0.104c-0.067-0.067-0.104-0.241-0.1-0.466c0.007-0.554-0.033-1.095-0.07-1.622
											c-0.034-0.486-0.066-0.946-0.064-1.406c0.003-0.953,0.066-1.927,0.125-2.801c0.138-0.043,0.453-0.105,1.146-0.107
											c0.393,0,0.819,0.017,1.251,0.032c0.469,0.02,0.943,0.038,1.393,0.037c0.458,0,0.798,0.132,1.031,0.405
											C409.35,262.447,409.499,263.27,409.366,264.173z"/>
									</g>
								</g>
							</g>
							<g>
								<g>
									<path style="fill:#EFE9DA;" d="M390.141,273.118c-6.99-3.251-5.835-14.038-5.835-14.038l21.939-0.04
										c0,0,1.193,10.781-5.784,14.059c-0.741,0.348-2.036,0.302-2.851,0.413C395.053,273.86,392.668,273.48,390.141,273.118z"/>
								</g>
							</g>
						</g>
					</g>
				</g>
				<g>
					<path style="fill:#616D18;" d="M169.654,233.584c-0.494-2.248-0.426-4.417-0.521-6.747c-0.092-2.089-0.429-4.818,1.008-6.514
						c1.836-2.26,3.777,0.139,4.191,2.145c0.578,2.729,0.193,5.624-0.112,8.356c-0.151,1.769-1.339,4.748-3.679,3.235
						L169.654,233.584z"/>
					<path style="fill:#A4C64F;" d="M167.839,238.22c-0.521-1.3-0.809-2.765-1.154-4.057c-0.492-1.845-0.904-3.69-0.915-5.619
						c-0.007-1.045-0.173-2.088,0.87-2.495c0.881-0.406,2.09,0.147,2.654,0.788c1.214,1.278,1.31,4.01,1.72,5.614
						c0.373,1.804,1.045,3.946,0.516,5.778c-0.477,1.654-2.617,2.296-3.453,0.538C167.992,238.589,167.913,238.406,167.839,238.22z"
						/>
					<path style="fill:#89A532;" d="M172.469,237.426c-0.079-1.227,0.086-2.482,0.079-3.697c0.069-1.849,0.459-4.021,1.172-5.713
						c0.874-1.852,3.847-1.869,4.582,0.216c0.653,1.845,0.104,4.419-0.446,6.268c-0.473,1.611-0.866,3.301-1.982,4.512
						c-0.474,0.513-1.325,1.256-2.092,1.188c-0.78-0.069-0.952-0.823-1.124-1.511C172.554,238.273,172.497,237.852,172.469,237.426z
						"/>
					<path style="fill:#78841C;" d="M166.409,242.813c-1.242-1.588-2.447-3.502-3.401-5.453c-0.844-1.735-2.088-3.721-2.207-5.714
						c-0.122-1.992,2.121-2.874,3.471-1.434c0.911,0.939,1.462,2.203,2.048,3.322c0.844,1.591,1.503,3.146,2.021,4.883
						c0.296,1.084,1.546,4.195-0.592,4.207L166.409,242.813z"/>
					<path style="fill:#78841C;" d="M169.3,242.193c-0.15-1.082-0.32-2.162-0.485-3.236c-0.189-1.231-0.233-2.789,0.049-4.024
						c0.213-0.942,0.895-1.998,1.982-2.077c1.16-0.078,1.746,1.151,2.041,2.127c0.554,1.809,0.422,3.876,0.468,5.759
						c0.05,2.104-0.119,4.313-1.015,6.276c-0.537,1.199-1.59,0.843-2.139-0.17c-0.404-0.744-0.527-1.499-0.612-2.329
						C169.508,243.745,169.409,242.968,169.3,242.193z"/>
					<path style="fill:#616D18;" d="M175.968,242.556c-0.124-0.532,0.012-1.251,0.077-1.674c0.185-1.194,0.314-2.395,0.46-3.598
						c0.234-1.98,0.815-3.779,1.579-5.598c0.491-1.262,1.191-2.064,2.633-1.921c1.298,0.131,1.73,1.267,1.652,2.425
						c-0.231,2.671-1.27,5.407-2.353,7.85c-0.427,0.977-0.901,2.459-1.872,3.054c-0.562,0.345-1.283,0.385-1.838,0.012
						C176.126,242.984,176.021,242.787,175.968,242.556z"/>
					<path style="fill:#89A532;" d="M164.704,245.818c-0.552-0.572-1.121-1.113-1.694-1.682c-0.73-0.721-1.423-1.516-2.116-2.308
						c-1.095-1.262-3.066-3.969-1.771-5.645c0.754-1.018,2.423-0.773,3.298-0.054c0.69,0.539,1.24,1.441,1.786,2.128
						c0.694,0.83,1.352,1.696,1.937,2.599c0.95,1.553,1.829,3.215,2.638,4.914c0.659,1.301,0.409,1.954-1.112,1.963
						c-0.991,0.006-1.714-0.537-2.345-1.248C165.12,246.258,164.913,246.036,164.704,245.818z"/>
					<path style="fill:#89A532;" d="M176.106,246.599c0.39-1.67,0.813-3.411,1.349-5.045c0.463-1.452,0.997-3.014,2.078-4.107
						c0.612-0.619,1.261-1.42,2.168-1.172c1.161,0.283,1.676,1.621,1.574,2.673c-0.14,1.27-0.893,2.542-1.357,3.704
						c-0.32,0.872-0.895,2.035-1.287,2.871c-0.466,1.018-1.039,2.252-2.051,2.802c-0.577,0.33-1.991,0.446-2.321-0.313
						L176.106,246.599z"/>
					<path style="fill:#A4C64F;" d="M168.071,248.638c-0.518-1.917-1.362-3.942-1.881-5.933c-0.371-1.484-1.513-4.594,0.476-5.294
						c3.076-1.032,3.536,3.567,3.875,5.486c0.298,1.594,0.706,3.185,1.041,4.814c0.188,1.086,0.155,1.63-0.93,2.18L168.071,248.638z
						"/>
					<path style="fill:#A4C64F;" d="M171.547,247.785c0.43-0.909,0.346-2.793,0.484-3.917c0.171-1.923,0.156-4.423,0.944-6.203
						c0.572-1.235,1.437-2.037,2.889-1.648c1.308,0.355,1.606,2.021,1.575,3.108c-0.056,2.645-0.765,5.368-1.366,7.944
						c-0.425,1.777-2.347,1.607-3.691,1.072L171.547,247.785z"/>
					<rect x="162.169" y="245.956" style="fill:#996600;" width="19.781" height="25.805"/>
					<g style="opacity:0.4;">
						<path style="fill:#FFEB3F;" d="M162.169,245.956c1.648-0.091,3.297-0.146,4.945-0.2l4.945-0.117
							c3.297-0.01,6.594-0.089,9.891-0.037l0.357,0.006l-0.003,0.349c-0.022,2.422-0.022,4.845-0.098,7.267
							c-0.05,2.422-0.13,4.845-0.257,7.267c-0.127-2.422-0.207-4.845-0.257-7.267c-0.075-2.422-0.075-4.845-0.098-7.267l0.355,0.354
							c-3.297,0.052-6.594-0.027-9.891-0.037l-4.945-0.117C165.466,246.102,163.817,246.047,162.169,245.956z"/>
					</g>
					<rect x="160.565" y="269.391" style="fill:#B78D18;" width="23.743" height="4.259"/>
					<g style="opacity:0.4;">
						<path style="fill:#FFEB3F;" d="M178.823,247.975c-0.165-0.088-0.364-0.081-0.608,0.073c-1.188,0.75,0.529,3.678,0.679,4.622
							c0.263,1.663-0.494,2.896-0.709,4.466c-0.169,1.228,0.171,2.341,0.282,3.493c0.227,2.32-1.06,4.744,1.252,6.03
							c0.773-0.73,0.141-3.134,0.145-4.212c0.004-1.682-0.208-3.318-0.279-4.926c-0.106-2.366,0.291-4.729,0.019-7.101
							C179.539,249.866,179.413,248.293,178.823,247.975z"/>
					</g>
				</g>
				<g>
					<g>
						<path style="fill:#BABABA;" d="M263.052,247.439c0,0-0.412,20.432-15.891,20.432v3.094h53.244v-3.302
							c0,0-14.653-2.271-14.653-20.225H263.052z"/>
						
							<linearGradient id="SVGID_00000059282521269324096860000008126955116409599676_" gradientUnits="userSpaceOnUse" x1="273.7828" y1="270.9655" x2="273.7828" y2="247.4391">
							<stop  offset="0" style="stop-color:#FFFFFF;stop-opacity:0"/>
							<stop  offset="1" style="stop-color:#A7AAAC"/>
						</linearGradient>
						<path style="opacity:0.3;fill:url(#SVGID_00000059282521269324096860000008126955116409599676_);" d="M263.052,247.439
							c0,0-0.412,20.432-15.891,20.432v3.094h53.244v-3.302c0,0-14.653-2.271-14.653-20.225H263.052z"/>
						<rect x="232.328" y="267.678" style="fill:#D2D3D5;" width="82.91" height="5.971"/>
						<path style="fill:#2E2F33;" d="M225.088,141.567c-10.53,11.339-20.584,23.123-30.142,35.336v16.953
							c14.547-17.713,29.415-35.338,44.966-52.289H225.088z"/>
						<path style="fill:#3E3F42;" d="M239.912,141.567c-15.55,16.951-30.419,34.576-44.966,52.289v23.896
							c20.49-26.628,43.1-51.467,65.929-76.185H239.912z"/>
						<path style="fill:#2E2F33;" d="M352.62,147.758c0-3.419-2.772-6.191-6.191-6.191h-85.554
							c-22.829,24.718-45.438,49.557-65.929,76.185v16.052h116.49c13.212-20.728,27.138-40.993,41.183-61.235V147.758z"/>
						<path style="fill:#2E2F33;" d="M352.62,206.7v-16.732c-8.822,14.248-17.091,28.872-25.032,43.837h10.35
							C342.887,224.803,347.712,215.727,352.62,206.7z"/>
						<path style="fill:#3E3F42;" d="M352.62,206.7c-4.908,9.028-9.732,18.104-14.682,27.104h5.422
							c3.094-5.741,6.204-11.48,9.26-17.255V206.7z"/>
						<path style="fill:#2E2F33;" d="M352.62,216.549c-3.055,5.775-6.165,11.514-9.26,17.255h9.26V216.549z"/>
						<path style="fill:#3E3F42;" d="M352.62,172.569c-14.045,20.241-27.971,40.506-41.183,61.235h16.152
							c7.941-14.965,16.21-29.589,25.032-43.837V172.569z"/>
						<path style="fill:#3E3F42;" d="M219.344,141.567c-8.32,8.727-16.425,17.67-24.398,26.715v8.621
							c9.558-12.213,19.612-23.997,30.142-35.336H219.344z"/>
						<path style="fill:#2E2F33;" d="M201.137,141.567c-3.419,0-6.191,2.772-6.191,6.191v20.524
							c7.973-9.046,16.078-17.988,24.398-26.715H201.137z"/>
						<path style="fill:#4C4844;" d="M346.428,228.198L346.428,228.198H201.137l0,0v-75.851c0-3.095,2.512-5.606,5.609-5.606
							h134.073c3.097,0,5.609,2.51,5.609,5.606V228.198z"/>
						<path style="fill:#D2D3D5;" d="M201.137,251.361h145.291c3.419,0,6.191-2.772,6.191-6.193v-11.364H194.946v11.364
							C194.946,248.589,197.718,251.361,201.137,251.361z"/>
						<path style="fill:#3E3F42;" d="M279.252,242.692c0,1.369-2.451,2.476-5.467,2.476c-3.023,0-5.471-1.108-5.471-2.476
							c0-1.369,2.447-2.478,5.471-2.478C276.801,240.214,279.252,241.323,279.252,242.692z"/>
					</g>
				</g>
				<g>
					<g>
						<g>
							<g>
								<path style="fill:#D79495;" d="M370.371,268.661c0.801,0.099,1.439,0.274,1.547-0.628l0.195-1.592l-2.997-0.366
									l-0.195,1.592c-0.112,0.9,0.551,0.885,1.352,0.985L370.371,268.661z"/>
							</g>
							<g>
								
									<rect x="370.218" y="264.299" transform="matrix(0.1215 -0.9926 0.9926 0.1215 61.8063 601.4475)" style="fill:#999999;" width="0.905" height="3.02"/>
							</g>
						</g>
						<g>
							<g>
								
									<rect x="355.079" y="248.285" transform="matrix(0.1214 -0.9926 0.9926 0.1214 79.6701 587.4843)" style="fill:#E8C358;" width="33.231" height="0.907"/>
							</g>
							<g>
								<polygon style="fill:#E8C358;" points="372.225,265.543 376.261,232.556 375.062,232.411 371.027,265.393 								"/>
							</g>
							<g>
								
									<rect x="355.98" y="248.394" transform="matrix(0.1215 -0.9926 0.9926 0.1215 80.3223 588.4481)" style="fill:#2D2D2C;" width="33.23" height="0.907"/>
							</g>
						</g>
						<g>
							<g>
								<polygon style="fill:#342219;" points="375.863,225.863 375.036,227.842 375.994,227.96 								"/>
							</g>
							<g>
								<polygon style="fill:#F2D5B6;" points="376.261,232.556 375.994,227.96 375.036,227.842 373.262,232.19 								"/>
							</g>
						</g>
					</g>
					<g>
						<g>
							<path style="fill:#2D2D2C;" d="M372.344,268.083l-0.04-0.906l-1.485-33.197l-1.205,0.055l-0.906,0.04l-0.907,0.04
								l1.484,33.196l0.041,0.906l0.071,1.604c0.042,0.906,0.691,0.782,1.495,0.747l0.1-0.006c0.807-0.035,1.464,0.03,1.422-0.876
								L372.344,268.083z"/>
						</g>
						<g>
							<g>
								<polygon style="fill:#342219;" points="369.317,227.157 368.831,229.244 369.797,229.201 								"/>
							</g>
							<g>
								<polygon style="fill:#F2D5B6;" points="370.819,233.691 369.797,229.201 368.831,229.244 367.801,233.826 								"/>
							</g>
						</g>
					</g>
					<g>
						<g>
							<path style="fill:#5257A1;" d="M364.757,227.95c-0.302,0-0.557-0.235-0.577-0.541c-0.037-0.577-0.053-1.069-0.068-1.518
								l-0.027-0.721c-0.016-0.319,0.23-0.589,0.55-0.604c0.307-0.028,0.589,0.231,0.604,0.55l0.028,0.737
								c0.015,0.439,0.03,0.919,0.067,1.482c0.02,0.319-0.221,0.594-0.539,0.614C364.782,227.949,364.769,227.95,364.757,227.95z"/>
						</g>
						<g>
							<g>
								<path style="fill:#999999;" d="M366.493,230.557c0,0-0.534-5.251-1.872-4.971c-1.018,0.214-1.209,5.136-1.209,5.136
									L366.493,230.557z"/>
							</g>
						</g>
						<g style="opacity:0.6;">
							<g>
								<g>
									<polygon style="fill:#B5D6D7;" points="368.394,265.986 368.149,261.423 366.493,230.557 363.412,230.722 365.068,261.588 
										365.313,266.15 									"/>
								</g>
							</g>
						</g>
						<g>
							<g>
								<polygon style="fill:#B5D6D7;" points="364.728,231.033 365.191,231.033 366.987,264.862 366.612,264.986 								"/>
							</g>
						</g>
						<g>
							<path style="fill:#5257A1;" d="M365.357,266.603c-0.004-0.05,0.682-0.139,1.533-0.199c0.849-0.058,1.54-0.063,1.544-0.01
								c0.006,0.049-0.682,0.138-1.533,0.198C366.051,266.651,365.36,266.656,365.357,266.603z"/>
						</g>
						<g>
							<g>
								<g>
									<path style="fill:#5257A1;" d="M367.215,239.401c1.265,0.179,0.703-8.591,0.703-8.591s-1.326-13.065-2.791-13.597
										c-1.466-0.533-2.239,4.174-1.843,14.505l3.4-0.218L367.215,239.401z"/>
								</g>
							</g>
							<g>
								<defs>
									<path id="SVGID_1_" d="M367.215,239.401c1.063,0.7,0.703-8.591,0.703-8.591s-1.326-13.065-2.791-13.597
										c-1.466-0.533-2.239,4.174-1.843,14.505l3.4-0.218L367.215,239.401z"/>
								</defs>
								<clipPath id="SVGID_00000029737790508260395240000013246555929673150393_">
									<use xlink:href="#SVGID_1_"  style="overflow:visible;"/>
								</clipPath>
								<g style="clip-path:url(#SVGID_00000029737790508260395240000013246555929673150393_);">
									<g>
										
											<rect x="362.685" y="230.227" transform="matrix(0.998 -0.0639 0.0639 0.998 -13.9824 23.824)" style="fill:#3A4181;" width="5.392" height="0.462"/>
									</g>
								</g>
							</g>
						</g>
					</g>
					<g>
						<g>
							<g>
								<path style="fill:#D79495;" d="M363.365,269.715c0.799-0.111,1.459-0.106,1.335-1.004l-0.221-1.59l-2.993,0.415l0.221,1.589
									c0.125,0.899,0.759,0.715,1.559,0.603L363.365,269.715z"/>
							</g>
							<g>
								
									<rect x="361.41" y="266.427" transform="matrix(0.9904 -0.1379 0.1379 0.9904 -33.332 52.5901)" style="fill:#999999;" width="3.021" height="0.906"/>
							</g>
						</g>
						<g>
							<g>
								
									<rect x="359.074" y="233.503" transform="matrix(0.9905 -0.1374 0.1374 0.9905 -30.9634 51.785)" style="fill:#E8C358;" width="0.906" height="33.231"/>
							</g>
							<g>
								
									<rect x="360.869" y="233.233" transform="matrix(0.9905 -0.1373 0.1373 0.9905 -30.8887 52.0121)" style="fill:#E8C358;" width="1.209" height="33.23"/>
							</g>
							<g>
								
									<rect x="359.972" y="233.378" transform="matrix(0.9905 -0.1375 0.1375 0.9905 -30.9475 51.9268)" style="fill:#2D2D2C;" width="0.907" height="33.23"/>
							</g>
						</g>
						<g>
							<g>
								<polygon style="fill:#342219;" points="357.685,226.941 357.392,229.065 358.351,228.932 								"/>
							</g>
							<g>
								<polygon style="fill:#F2D5B6;" points="359.79,233.308 358.351,228.932 357.392,229.065 356.795,233.723 								"/>
							</g>
						</g>
					</g>
					<g>
						<g>
							<g>
								<path style="fill:#DBA52C;" d="M356.744,248.294h19.997c0,0,1.456,12.31-5.61,25.356h-8.778
									C355.285,260.604,356.744,248.294,356.744,248.294z"/>
							</g>
						</g>
					</g>
				</g>
				<g>
					<rect x="104.665" y="302.303" style="fill:#8C5849;" width="324.442" height="5.151"/>
					<g>
						<g>
							<path style="fill:#774337;" d="M101.76,425.176c0,0.655-0.357,1.186-0.795,1.186h-3.819c-0.44,0-0.795-0.531-0.795-1.186l0,0
								c0-0.653,0.355-1.182,0.795-1.182h3.819C101.404,423.994,101.76,424.523,101.76,425.176L101.76,425.176z"/>
						</g>
						<g>
							<path style="fill:#774337;" d="M104.096,422.34c0,1.568-1.21,2.836-2.7,2.836h-4.525c-1.49,0-2.698-1.268-2.698-2.836
								V291.105c0-1.567,1.208-2.836,2.698-2.836l9.924-1.418c1.491,0,2.7,2.687,2.7,4.254L104.096,422.34z"/>
						</g>
					</g>
					<g>
						<g>
							<path style="fill:#774337;" d="M426.404,425.176c0,0.655,0.357,1.186,0.795,1.186h3.819c0.438,0,0.795-0.531,0.795-1.186l0,0
								c0-0.653-0.356-1.182-0.795-1.182h-3.819C426.76,423.994,426.404,424.523,426.404,425.176L426.404,425.176z"/>
						</g>
						<g>
							<path style="fill:#774337;" d="M424.067,422.34c0,1.568,1.209,2.836,2.7,2.836h4.525c1.489,0,2.698-1.268,2.698-2.836
								V291.105c0-1.567-1.209-2.836-2.698-2.836l-9.924-1.418c-1.493,0-2.701,2.687-2.701,4.254L424.067,422.34z"/>
						</g>
					</g>
					<g>
						<rect x="87.861" y="283.427" style="fill:#8C5849;" width="352.383" height="7.456"/>
					</g>
					<rect x="81.942" y="273.482" style="fill:#B67A5F;" width="362.809" height="12.798"/>
				</g>
			</g>
			<g>
				<g>
					<path style="fill:#493629;" d="M158.522,357.59l-3.681-27.497h-9.439l4.139,27.497H85.292
						c3.376-39.139,4.014-86.417-6.789-119.84h-7.797c0,0,21.25,63.739-3.784,202.048l8.009-0.308c0,0,6.261-38.822,9.763-75.333
						h65.838l9.644,64.06h7.797l-8.572-64.06L158.522,357.59z"/>
					<g>
						<path style="fill:#B6915F;" d="M181.371,332.761c0,4.419-3.498,8.003-7.808,8.003h-104.9c-4.311,0-7.805-3.584-7.805-8.003
							l0,0c0-4.418,3.494-8.002,7.805-8.002h104.9C177.872,324.759,181.371,328.343,181.371,332.761L181.371,332.761z"/>
						<rect x="64.14" y="338.711" style="fill:#775437;" width="114.371" height="10.26"/>
					</g>
					<path style="fill:#775437;" d="M175.842,428.344l5.529-1.248l-6.829-80.586h-9.441l3.893,25.855H64.912
						c3.607-42.237,4.566-94.237-6.518-130.715h-7.797c0,0,22.983,55.873-2.053,202.983h6.978c0,0,5.177-27.642,8.689-64.469
						h105.957L175.842,428.344z"/>
					<g>
						<path style="fill:#775437;" d="M93.688,250.883c0,5.442-4.407,9.85-9.849,9.85H51.007c-5.439,0-9.851-4.408-9.851-9.85
							v-18.468c0-5.441,4.412-9.85,9.851-9.85H83.84c5.442,0,9.849,4.409,9.849,9.85V250.883z"/>
						<path style="fill:#B6915F;" d="M93.688,250.883c0,5.442-3.789,9.85-8.464,9.85H57.008c-4.674,0-8.464-4.408-8.464-9.85
							v-18.468c0-5.441,3.79-9.85,8.464-9.85h28.216c4.675,0,8.464,4.409,8.464,9.85V250.883z"/>
					</g>
				</g>
				<g>
					<g>
						<g>
							<g>
								<path style="fill:#44280F;" d="M94.264,134.631c-4.022-0.027-8.221,0.073-10.862-3.57
									c-2.061-2.842-0.075-7.946,2.404-10.615c5.024-5.41,12.852-5.41,14.323,0.483
									C100.709,123.251,106.312,128.01,94.264,134.631z"/>
							</g>
							<g>
								<path style="fill:#44280F;" d="M144.994,136.079c-3.279-8.051,8.588-12.682,13.032-7.439
									C168.524,141.027,152.615,156.619,144.994,136.079z"/>
							</g>
							<path style="fill:#513015;" d="M154.193,188.822c0.097-7.126,0.545-14.247,1.345-21.328c0.417-3.696,0.93-7.415,0.612-11.121
								c-0.47-5.465-2.314-13.891-5.317-18.67c-3.93-6.255-12.555-11.004-19.077-13.983c-8.19-3.741-17.654-4.564-26.046-0.966
								c-9.45,4.05-18.469,9.471-22.958,19.118c-4.317,9.279-4.891,19.963-10.222,28.827c-1.932,3.212-4.066,7.872-2.987,11.698
								c0.678,2.403,3.348,3.834,2.803,6.714c-0.296,1.566-1.569,2.743-2.279,4.17c-1.255,2.521-0.58,5.727,1.222,7.891
								c1.802,2.164,4.551,3.377,7.332,3.819c1.978,0.315,4.152,0.332,5.714,1.587c1.408,1.132,1.959,2.995,2.963,4.496
								c1.893,2.829,5.634,4.279,8.939,3.466c1.047-0.258,2.05-0.719,3.124-0.816c2.413-0.219,4.548,1.391,6.666,2.569
								c5.992,3.332,13.673,3.404,19.726,0.185c1.471-0.782,2.882-1.757,4.511-2.111c3.579-0.779,7.832,1.48,10.73-0.761
								c1.581-1.222,2.234-3.516,4.06-4.326c1.041-0.462,2.242-0.326,3.359-0.545c7.462-1.464,5.798-10.317,5.765-15.624
								C154.168,191.681,154.173,190.251,154.193,188.822z"/>
							<g>
								<path style="fill:#F9DBCD;" d="M142.791,171.641c-0.485,0.572-1.012,1.141-1.588,1.707
									c0.392-4.118,3.638-15.879,3.226-21.745c-10.465-1.704-24.446-1.446-32.833-12.066c0,0-3.436,0.309-5.255,1.179
									c-2.718,1.299-5.469,4.614-6.701,7.293c-3.001,6.521-4.221,12.09-4.384,19.006c-0.297-0.561-0.569-1.139-0.829-1.719
									c-5.494-0.143-7.978,2.268-4.989,8.184c1.167,2.312,3.289,3.159,5.036,3.533c-0.063,5.162,1.307,10.712,5.421,14.081
									c2.172,1.824,6.333,4.987,8.599,6.052c-0.19,2.784-0.334,7.342-0.992,9c-2.432,5.393-11.479,2.604-17.004,3.296
									c-1.112,10.345,10.482,21.162,20.511,19.96c9.366,3.781,20.577,0.435,22.207-9.841c-4.336-6.846-10.948-4.776-11.887-10.614
									c-0.204-1.771,0.086-7.545,0.626-10.282c2.463-0.436,6.932-1.06,9.506-2.253c4.846-2.178,7.91-8.26,9.196-13.26
									c1.788,0.095,4.056-0.168,5.786-2.095C151.132,175.826,148.871,172.846,142.791,171.641z"/>
							</g>
						</g>
						<g>
							<path style="fill:#ECB8B6;" d="M102.764,173.429c2.595-0.159,5.983,2.168,3.668,3.755c-1.543,1.055-5.371,0.664-5.976-1.397
								C100.059,174.445,101.598,173.505,102.764,173.429z"/>
						</g>
						<g>
							<path style="fill:#ECB8B6;" d="M135.129,179.248c-2.463-0.835-6.342,0.525-4.52,2.663c1.217,1.424,5.01,2.048,6.133,0.217
								C137.475,180.932,136.237,179.625,135.129,179.248z"/>
						</g>
						<g>
							<g>
								<path style="fill:#56331E;" d="M101.666,155.199c0,0,0.175-0.062,0.467-0.19c0.294-0.103,0.684-0.394,1.153-0.527
									c0.229-0.085,0.47-0.171,0.699-0.284c0.246-0.096,0.542-0.14,0.806-0.249c0.268-0.109,0.556-0.174,0.847-0.229
									c0.296-0.057,0.586-0.161,0.879-0.185c0.592-0.075,1.185-0.157,1.75-0.122c0.28,0.005,0.566-0.035,0.819,0.029
									c0.261,0.05,0.52,0.069,0.764,0.084c0.253,0.007,0.453,0.098,0.656,0.138c0.21,0.045,0.387,0.086,0.538,0.121
									c0.306,0.064,0.504,0.09,0.504,0.09s-0.092-0.149-0.299-0.4c-0.105-0.124-0.232-0.279-0.393-0.441
									c-0.165-0.156-0.326-0.384-0.585-0.502c-0.482-0.269-1.07-0.681-1.791-0.767c-0.35-0.046-0.724-0.197-1.107-0.157
									c-0.376,0.024-0.764,0.046-1.152,0.067c-0.378,0.061-0.74,0.207-1.105,0.3c-0.366,0.09-0.683,0.277-0.992,0.46
									c-0.626,0.32-1.147,0.782-1.527,1.217c-0.425,0.389-0.552,0.814-0.722,1.085
									C101.733,155.026,101.666,155.199,101.666,155.199z"/>
							</g>
							<g>
								<path style="fill:#56331E;" d="M128.541,156.292c0,0,0.189,0.021,0.522,0.039c0.323,0.034,0.812-0.032,1.33,0.016
									c0.258,0.029,0.527,0.057,0.801,0.059c0.271-0.015,0.572,0.076,0.87,0.112c0.293,0.05,0.616,0.046,0.897,0.152
									c0.296,0.079,0.595,0.157,0.892,0.236l0.815,0.353c0.292,0.088,0.502,0.286,0.739,0.439
									c0.227,0.161,0.504,0.276,0.662,0.497c0.175,0.194,0.367,0.375,0.557,0.544c0.214,0.161,0.289,0.379,0.424,0.542
									c0.135,0.181,0.248,0.331,0.343,0.459c0.199,0.258,0.334,0.412,0.334,0.412s0.024-0.182,0.024-0.52
									c-0.005-0.164,0.001-0.375-0.021-0.613c-0.045-0.231-0.005-0.537-0.15-0.799c-0.115-0.273-0.241-0.582-0.408-0.892
									c-0.129-0.341-0.391-0.604-0.678-0.884c-0.287-0.252-0.538-0.617-0.926-0.764c-0.362-0.186-0.73-0.396-1.109-0.557
									c-0.402-0.082-0.805-0.164-1.199-0.247c-0.392-0.117-0.776-0.008-1.149-0.012c-0.74-0.008-1.433,0.253-1.982,0.44
									c-0.544,0.187-0.893,0.497-1.175,0.672C128.689,156.167,128.541,156.292,128.541,156.292z"/>
							</g>
							<g>
								<path style="fill:#8E3030;" d="M111.324,182.236c0,0,0.081,0.216,0.25,0.587c0.163,0.34,0.483,0.887,0.948,1.398
									c0.446,0.552,1.091,1.089,1.826,1.579c0.395,0.21,0.781,0.483,1.224,0.641c0.431,0.194,0.894,0.331,1.359,0.469
									c0.481,0.089,0.958,0.196,1.444,0.2c0.489,0.056,0.973-0.022,1.434-0.079c0.919-0.181,1.757-0.517,2.323-1.003
									c0.313-0.205,0.534-0.464,0.719-0.693c0.2-0.208,0.335-0.425,0.425-0.615c0.187-0.369,0.277-0.573,0.277-0.573
									L111.324,182.236z"/>
							</g>
							<g>
								<path style="fill:#E8A07D;" d="M120.648,166.912c0.059,1.439-0.009,2.856-0.121,4.267c-0.038,0.681-0.134,1.459-0.246,2.144
									c-0.108,0.675-0.215,1.357-0.104,1.867c0.057,0.264,0.112,0.397,0.29,0.566c0.185,0.179,0.474,0.353,0.771,0.556
									c0.296,0.215,0.632,0.417,0.946,0.818c0.145,0.207,0.301,0.474,0.304,0.786c0.019,0.303-0.078,0.568-0.187,0.776
									c-0.2,0.377-0.576,0.776-0.985,0.919c-0.399,0.158-0.791,0.21-1.172,0.221c-0.755-0.006-1.51-0.143-2.132-0.53
									c0.707,0.11,1.408,0.055,2.054-0.104c0.32-0.077,0.627-0.189,0.863-0.347c0.243-0.158,0.344-0.329,0.451-0.586
									c0.068-0.249,0.027-0.269-0.085-0.422c-0.136-0.151-0.42-0.323-0.714-0.49c-0.299-0.176-0.626-0.362-0.968-0.657
									c-0.363-0.296-0.641-0.828-0.711-1.259c-0.14-0.895,0.029-1.638,0.174-2.346c0.186-0.7,0.284-1.324,0.45-2.044
									C119.828,169.656,120.175,168.273,120.648,166.912z"/>
							</g>
							<g>
								<path d="M102.079,169.795c0.378-0.829,1.076-1.475,1.934-1.878c0.859-0.397,1.884-0.502,2.828-0.3
									c0.949,0.195,1.799,0.684,2.453,1.319c0.648,0.644,1.132,1.426,1.304,2.324c-0.83-0.379-1.518-0.748-2.203-1.034
									c-0.677-0.292-1.323-0.517-1.969-0.653c-0.646-0.135-1.29-0.189-1.994-0.145
									C103.723,169.459,102.976,169.619,102.079,169.795z"/>
							</g>
							<g>
								<path d="M126.012,173.237c0.234-0.894,0.943-1.62,1.801-2.049c0.863-0.426,1.91-0.55,2.892-0.299
									c0.984,0.241,1.874,0.885,2.391,1.71c0.518,0.829,0.701,1.784,0.516,2.674c-0.625-0.677-1.137-1.236-1.697-1.635
									c-0.55-0.404-1.107-0.657-1.703-0.812c-0.597-0.152-1.239-0.204-1.929-0.144
									C127.586,172.739,126.865,172.913,126.012,173.237z"/>
							</g>
							<g>
								<path style="fill:#E8A07D;" d="M112.158,198.364c1.382,0.103,2.648,0.344,3.929,0.503c1.284,0.176,2.517,0.299,3.896,0.294
									c-0.577,0.399-1.268,0.606-1.955,0.702c-0.691,0.103-1.39,0.077-2.074-0.006
									C114.594,199.656,113.267,199.208,112.158,198.364z"/>
							</g>
						</g>
						<g>
							<path style="fill:#513015;" d="M110.442,134.633c-1.063,3.66-1.248,7.341,0.514,10.873c1.382,2.771,5.383,7.232,8.443,7.905
								c-0.619-2.152-2.453-5.052-3.892-6.766c0.098,3.571,9.422,5.234,11.939,5.715c4.195,0.802,8.571,0.522,12.831,0.516
								c-4.24,0.158-9.85-6.026-12.434-8.496C123.393,140.126,118.03,134.519,110.442,134.633z"/>
						</g>
						<path style="fill:#141210;" d="M96.329,165.977c-0.335,2.67,0.374,5.316,2.008,7.459c1.646,2.158,4.029,3.55,6.715,3.923
							c0.014,0.002,0.028,0.004,0.042,0.006c2.704,0.365,5.388-0.346,7.557-2c2.153-1.641,3.541-4.018,3.918-6.697
							c1.607-0.713,3.987-0.598,5.522,0.807c-0.357,2.696,0.353,5.372,2.002,7.535c1.646,2.159,4.029,3.551,6.715,3.924
							c0.014,0.002,0.028,0.004,0.042,0.006c5.581,0.751,10.733-3.178,11.487-8.758c0.75-5.568-3.159-10.709-8.719-11.481
							c-0.013-0.002-0.026-0.003-0.039-0.005c-5.221-0.703-10.067,2.692-11.286,7.702c-1.659-1.202-3.911-1.368-5.628-0.803
							c0.181-5.165-3.583-9.742-8.803-10.467c-0.014-0.002-0.026-0.004-0.039-0.005c-5.284-0.712-10.177,2.774-11.322,7.883
							L96.329,165.977z M123.046,169.581c0.682-5.055,5.35-8.614,10.405-7.934c0.012,0.002,0.024,0.003,0.035,0.005
							c5.038,0.699,8.578,5.357,7.899,10.401c-0.682,5.055-5.351,8.614-10.406,7.934c-2.425-0.335-4.623-1.594-6.121-3.56
							C123.359,174.462,122.716,172.031,123.046,169.581z M97.29,166.007c0.005-0.036,0.015-0.069,0.02-0.105
							c0.004-0.007,0.012-0.01,0.016-0.018c0.033-0.077,0.038-0.156,0.031-0.234c0.849-4.863,5.403-8.242,10.338-7.577
							c0.012,0.002,0.024,0.003,0.036,0.005c5.037,0.699,8.577,5.356,7.898,10.4c-0.33,2.449-1.594,4.624-3.56,6.122
							c-1.965,1.499-4.397,2.142-6.846,1.811c-0.013-0.002-0.025-0.004-0.038-0.005c-2.434-0.338-4.593-1.599-6.083-3.554
							C97.603,170.887,96.959,168.456,97.29,166.007z"/>
					</g>
					<g>
						<g>
							<g>
								<g>
									<g>
										<path style="fill:#F9DBCD;" d="M183.422,217.995c0.06-0.514,0.159-1.023,0.33-1.524c1.121-3.302,2.387-6.57,3.956-9.687
											c0.032-0.061,0.061-0.122,0.093-0.183c0.569-1.159,1.117-2.476,2.447-4.291c0.96-1.311,1.917-0.242,1.728,1.231
											c-0.244,1.936-3.748,9.415-4.403,11.438c1.095-0.123,5.123-6.534,6.349-8.246c0.514-0.696,2.165-2.915,2.698-1.304
											c0.179,0.635-0.643,2.284-0.956,2.951c-0.889,1.895-1.857,3.751-2.829,5.603c-0.844,1.607-2.29,3.417-2.769,5.168
											c-0.257,0.938-0.016,1.891,0.035,2.843c0.115,2.133-0.786,5.279-2.33,6.845c-1.39,1.412-3.104,2.484-4.662,3.702
											c-1.56,1.219-2.78-0.289-2.754-2.038c0.038-2.555,1.415-4.434,2.372-6.661
											C183.538,221.945,183.192,219.947,183.422,217.995z"/>
									</g>
									<g>
										<path style="fill:#F9DBCD;" d="M190.997,221.192c0.845,0.945,1.028,2.156,0.173,3.317
											c-0.542,0.782-1.692,1.369-2.562,0.799c-1.595-0.995,0.584-2.686,1.647-3.302L190.997,221.192z"/>
										<g>
											<path style="fill:#E8A07D;" d="M190.531,221.327c0.862,1.042,0.942,2.387-0.016,3.417
												c-0.505,0.542-1.391,0.792-1.85,0.061c-0.212-0.339-0.118-0.7,0.059-1.028c0.383-0.713,1.136-1.167,1.776-1.615
												c0.365-0.255,0.639-0.613,0.939-0.943c0.249-0.273-0.703-0.251-0.885-0.051c-0.233,0.256-0.455,0.578-0.724,0.795
												c-0.425,0.344-0.911,0.595-1.319,0.972c-0.702,0.649-1.446,1.705-0.452,2.451c0.914,0.686,2.282,0.331,3.093-0.351
												c1.276-1.073,1.34-2.732,0.311-3.976C191.28,220.835,190.347,221.104,190.531,221.327z"/>
										</g>
									</g>
									<g>
										<path style="fill:#F9DBCD;" d="M189.602,218.883c-0.87-0.57-3.754,3.002-2.357,4.32c1.337,1.2,6.555-2.768,3.311-4.299
											L189.602,218.883z"/>
										<g>
											<path style="fill:#E8A07D;" d="M189.602,218.883c-0.282-0.097-0.519,0.103-0.718,0.265
												c-0.202,0.172-0.381,0.379-0.543,0.593c-0.328,0.427-0.589,0.905-0.786,1.384c-0.186,0.477-0.295,0.994-0.202,1.366
												c0.149,0.377,0.307,0.473,0.759,0.416c0.892-0.152,1.86-0.783,2.543-1.508c0.329-0.376,0.597-0.807,0.603-1.23
												c0.023-0.426-0.324-0.823-0.766-1.135l0.059,0.014C190.221,219.001,189.903,218.944,189.602,218.883z M189.602,218.883
												l0.956-0.125l0.016-0.002l0.043,0.016c0.533,0.196,1.165,0.597,1.282,1.334c0.103,0.711-0.222,1.34-0.574,1.837
												c-0.779,0.955-1.756,1.718-3.092,1.945c-0.175,0.014-0.341,0.044-0.545-0.002l-0.29-0.053
												c-0.099-0.041-0.201-0.1-0.298-0.158c-0.39-0.235-0.548-0.619-0.64-0.985c-0.115-0.746,0.135-1.36,0.423-1.888
												c0.294-0.532,0.682-0.989,1.125-1.378c0.23-0.186,0.461-0.373,0.739-0.495
												C188.997,218.807,189.356,218.685,189.602,218.883z"/>
										</g>
									</g>
								</g>
								<g>
									<g>
										<path style="fill:#F9DBCD;" d="M186.041,222.62c-0.327-0.777-0.55-1.564-0.956-2.322
											c-0.278-0.515-0.836-1.102-0.987-1.647c0.343-0.041,0.704-0.058,1.047-0.093c0.732,1.764,4.122,4.18,3.49,1.451
											c-0.356-1.267-1.13-2.669-2.049-3.733l-0.032,0.033c-0.534-0.651-1.781-0.8-2.632-0.991
											c-0.727-0.164-1.476-0.419-2.084,0.208c-1.03,1.063-1.216,3.862-1.44,5.267c-0.372,2.324-0.45,4.673-0.986,6.974
											c-0.553,2.371-1.853,4.084-3.175,6.069c-1.445,2.167-2.892,4.33-4.348,6.489c-2.836,4.212-5.66,8.446-8.667,12.539
											c-5.667-8.196-26.269-37.67-30.346-38.938c-6.263-1.943,3.63,24.596,3.63,24.596s20.868,28.526,27.646,31.24
											c2.441,0.36,4.625-2.997,5.778-4.649c4.523-6.494,7.638-14.071,10.618-21.361c1.206-2.947,2.362-5.914,3.469-8.901
											c0.569-1.538,1.225-2.921,2.049-4.343C187.469,228.089,187.083,225.104,186.041,222.62z"/>
									</g>
									<g>
										<path style="fill:#E8A07D;" d="M186.944,227.684c-0.005-1.617-0.44-3.161-1.055-4.601
											c-0.344-0.713-0.633-1.508-0.97-2.182c-0.273-0.704-0.893-1.122-1.275-2.124c-0.086-0.226,0.027-0.478,0.253-0.564
											c0.036-0.014,0.073-0.022,0.11-0.026l0.036-0.003l1.054-0.106c0.211-0.021,0.404,0.097,0.488,0.279l0.008,0.017
											c0.289,0.633,0.845,1.24,1.431,1.727c0.295,0.238,0.617,0.461,0.918,0.581c0.134,0.054,0.305,0.079,0.282,0.063
											c0.025,0.013-0.043,0.01-0.02,0.029c-0.013-0.044,0.029-0.016,0.019-0.108c0.046-0.558-0.307-1.426-0.631-2.118
											c-0.344-0.723-0.755-1.425-1.254-2.058l0.482,0.015l-0.034,0.031l-0.025,0.023c-0.124,0.116-0.319,0.11-0.435-0.014
											l-0.025-0.031c-0.184-0.255-0.54-0.442-0.912-0.579c-0.377-0.135-0.781-0.244-1.19-0.358
											c-0.418-0.107-0.816-0.267-1.214-0.335c-0.394-0.072-0.824-0.008-1.148,0.283c0.255-0.344,0.724-0.53,1.167-0.499
											c0.446,0.015,0.858,0.12,1.272,0.165c0.419,0.055,0.848,0.103,1.277,0.227c0.423,0.124,0.884,0.281,1.25,0.684
											l-0.485-0.021l0.031-0.034c0.116-0.129,0.315-0.14,0.445-0.024l0.02,0.02l0.017,0.019
											c0.587,0.635,1.104,1.334,1.521,2.096c0.205,0.383,0.389,0.778,0.547,1.189c0.146,0.409,0.319,0.848,0.275,1.428
											c0.014,0.122-0.079,0.335-0.144,0.49c-0.109,0.158-0.306,0.368-0.499,0.397c-0.423,0.131-0.683,0.006-0.935-0.065
											c-0.478-0.185-0.846-0.448-1.205-0.725c-0.687-0.581-1.291-1.235-1.695-2.129l0.495,0.296l-1.04,0.08l0.398-0.594
											c0.134,0.538,0.831,1.216,1.124,2.034c0.314,0.795,0.507,1.535,0.798,2.298
											C187.012,224.404,187.23,226.092,186.944,227.684z"/>
									</g>
								</g>
							</g>
							<g>
								<path style="fill:#4C4844;" d="M143.481,230.193c0.727-1.818,1.436-4.432,1.68-6.306c-3.266-4.518-7.407-8.233-7.988-8.824
									c-1.7-1.726-4.639-3.002-4.639-3.002c-0.188,2.669-2.497,8.06-1.57,10.614l-1.722,11.722l6.128,6.953
									C138.566,238.212,141.849,234.275,143.481,230.193z"/>
							</g>
						</g>
						<g>
							<g>
								<path style="fill:#4C4844;" d="M132.809,266.138c0.915-3.41-2.613-9.793-0.262-14.669c0.607-1.258,5.132-4.227,2.618-13.761
									c-2.514-9.54-2.632-25.646-2.632-25.646l-5.933-1.025l-5.684-0.98c0,0-1.348,6.993-7.454,7.753
									c-0.17,0.021-0.35,0.066-0.517-0.003c-6.519-2.683-8.549-9.245-8.549-9.245l-16.726-0.493l1.889,5.304
									c0,0-5.592,11.262-4.646,16.45c1.037,5.704,1.042,11.707,1.405,17.479c0.231,3.668,0.931,7.646,0.514,11.3
									c-0.329,2.882-2.616,4.943,0.397,7.654c2.931,2.637,12.472,3.573,16.436,4.468c5.995,1.355,12.28,1.613,18.391,1.068
									c1.194-0.106,2.399-0.254,3.518-0.685C127.65,270.308,132.402,267.655,132.809,266.138z"/>
							</g>
							<g>
								<g>
									<path style="fill:#3D3936;" d="M132.908,221.911c0.276,3.608,0.956,7.089,1.676,10.611
										c0.341,1.762,0.695,3.531,0.942,5.324c0.121,0.903,0.234,1.782,0.281,2.716c-0.005,0.941-0.183,1.815-0.24,2.718
										c-0.169-0.895-0.092-1.822-0.249-2.678c-0.155-0.854-0.376-1.746-0.56-2.616c-0.4-1.748-0.795-3.501-1.154-5.269
										C132.913,229.193,132.393,225.515,132.908,221.911z"/>
								</g>
								<g>
									<path style="fill:#3D3936;" d="M133.982,231.107c-0.002-0.938,0.321-1.76,0.738-2.515c0.444-0.742,0.969-1.415,1.746-1.939
										c-0.099,0.935-0.475,1.705-0.88,2.437C135.152,229.809,134.696,230.5,133.982,231.107z"/>
								</g>
							</g>
						</g>
						<g>
							<path style="fill:#3D3936;" d="M87.62,209.73l-5.287-3.08c0,0-1.061-0.415-3.028,3.08
								c-1.967,3.495-1.938,19.167,6.261,19.807C93.764,230.176,87.62,209.73,87.62,209.73z"/>
							<path style="fill:#F9DBCD;" d="M44.832,202.215l45.605,7.364c0,0-4.06,18.55-4.06,18.551c0.007-0.031-2.857-0.825-3.012-0.87
								c-7.317-2.113-31.731-8.012-35.736-9.168c-2.583-0.746-8.538-1.906-8.064-5.449c0.159-1.184,1.643-3.088,2.193-4.202
								C42.783,206.366,43.807,204.291,44.832,202.215z"/>
							<g>
								<g>
									<path style="fill:#636363;" d="M76.169,156.702c-0.429,1.857-2.109,3.342-3.754,3.317l-13.19-0.201
										c-1.644-0.025-2.626-1.55-2.194-3.405l6.475-27.947c0.434-1.857,2.113-3.343,3.757-3.317l13.19,0.199
										c1.646,0.025,2.626,1.548,2.197,3.407L76.169,156.702z"/>
									<path style="fill:#777777;" d="M75.178,156.686c-0.431,1.859-2.111,3.342-3.756,3.317l-13.188-0.199
										c-1.64-0.024-2.628-1.55-2.195-3.407l6.476-27.949c0.43-1.855,2.114-3.339,3.758-3.313l13.188,0.197
										c1.646,0.027,2.624,1.552,2.199,3.406L75.178,156.686z"/>
								</g>
								<path style="fill:#282727;" d="M79.449,128.661c-0.169,0.723-0.828,1.304-1.47,1.296c-0.647-0.012-1.028-0.607-0.863-1.334
									c0.172-0.728,0.83-1.309,1.472-1.3C79.233,127.335,79.619,127.93,79.449,128.661z"/>
							</g>
							<g>
								<path style="fill:#F9DBCD;" d="M67.021,148.286c-1.739,1.07-4.054,2.718-6.014,2.98c-0.383-1.494,10.614-5.866,8.94-7.845
									c-0.218-0.844-3.741,1.137-5.157,1.882c-1.736,1.072-3.649,1.722-5.362,2.668c1.677-2.738,10.438-5.606,9.319-7.195
									c-0.862-1.161-7.803,2.64-10.298,4.329c2.293-3.079,6.875-3.905,8.01-6.493c-0.42-1.214-6.593,1.571-8.179,3.178
									c-1.776,1.952-2.393,2.528-3.359,4.892c-1.376,3.574-2.466,13.729-1.73,19.252c-3.62,8.659-7.213,17.333-10.719,26.039
									c-2.219,5.51-3.112,6.995-4.427,12.833c-0.98,4.384-1.808,8.136,2.617,10.59c2.331,1.294,8.983-0.094,10.461-3.336
									c2.546-5.572,7.538-42.524,8.528-43.341c1.377-1.138,2.584-0.813,3.253-2.83c1.052-2.586,1.105-8.874,1.375-12.162
									c0.658-0.751,1.296-1.522,2.356-2.502c1.371-1.14,2.031-1.14,3.464-3.182C70.697,146.642,68.315,147.513,67.021,148.286z"/>
							</g>
							<g>
								<path style="fill:none;" d="M92.104,212.277c-1.031,6.518-1.839,10.773-2.429,13.509
									C92.214,221.804,92.671,216.154,92.104,212.277z"/>
								<path style="fill:#4C4844;" d="M90.947,208.61c0.511,0.75,0.921,2.056,1.157,3.667c0.208-1.312,0.423-2.705,0.649-4.208
									l-10.42-1.419c2.034,3.051,3.419,7.778,3.579,9.109c0.479,3.98-0.51,8.708-2.346,13.127l1.999,0.651
									c1.749-0.837,3.095-2.16,4.11-3.751c0.59-2.736,1.398-6.991,2.429-13.509C91.869,210.666,91.459,209.359,90.947,208.61z"/>
								<path style="fill:#4C4844;" d="M85.565,229.536l2.887,0.94c0,0,0.402-0.887,1.223-4.691
									C88.661,227.377,87.314,228.7,85.565,229.536z"/>
							</g>
							<g>
								<path style="fill:#E8A07D;" d="M53.339,201.717c0.286,1.422,0.267,2.824,0.177,4.22c-0.122,1.393-0.318,2.782-0.82,4.142
									c-0.288-1.427-0.269-2.826-0.177-4.22C52.643,204.468,52.839,203.083,53.339,201.717z"/>
							</g>
						</g>
					</g>
					<g>
						<g>
							<path style="fill:#43808E;" d="M122.994,318.767c-0.002,5.628,0.309,11.227,2.429,16.527c1.1,2.751,1.381,6.162,3.819,7.847
								c12.424-4.357,23.461-10.497,33.762-18.608c3.016-2.374,7.162-6.255,7.175-10.293c0.032-9.828-27.27-7.354-32.854-7.358"/>
						</g>
						<g>
							<path style="fill:#F1CCB9;" d="M191.075,328.953c-11.983-9.965-16.129-16.093-34.691-30.722
								c-4.551-3.587-3.477,0.029-8.976-0.02c-5.812-0.178-10.456,3.066-15.9,3.776l-2.759,12.226
								c18.089,10.579,36.02,29.226,53.303,41.435c-3.95,5.802-8.403,11.132-10.662,14.662c-4.138,6.464-7.602,13.402-11.151,20.198
								c-2.199,4.211-4.342,8.452-6.527,12.67c-2.182,4.211-4.102,8.514-6.208,12.79c-0.064,0.13-7.572,16.364-7.572,16.364
								c7.085,5.989,15.938,11.03,24.861,12.365c-3.271-3.6-7.528-8.71-9.92-11.724l-0.801-2.633
								c0.568-1.901,2.71-5.716,5.963-10.877c9.908-14.707,28.736-41.061,41.865-59.587l0.175,0.036
								c0.28-0.436,0.499-0.867,0.722-1.299c0.24-0.344,0.488-0.69,0.731-1.03l0.177,0.048l-0.397-0.134
								c0.146-0.364,0.308-0.733,0.42-1.093c0.105-0.199,0.209-0.397,0.315-0.595l-0.136-0.024
								C206.149,346.762,203.479,339.267,191.075,328.953z"/>
							<g>
								<g>
									<g>
										<path style="fill:#380E16;" d="M164.791,444.696c-8.924-1.336-17.777-6.376-24.861-12.365l-2.345,4.773
											c7.998,5.316,17.372,11.198,26.534,14.209c1.125,0.371,5.167,2.104,5.557-0.225
											C169.937,449.516,165.767,445.769,164.791,444.696z"/>
									</g>
								</g>
							</g>
						</g>
						<g>
							<path style="fill:#FFD8CC;" d="M205.347,441.167c-3.357-1.293-10.614-49.99-17.198-92.389l0.159-0.086
								c-0.06-0.896-0.211-1.708-0.4-2.485c0.01-0.037,0.021-0.075,0.031-0.113l-0.061,0.002c-0.028-0.11-0.06-0.216-0.09-0.323
								c-0.045-9.103-10.211-14.849-15.092-17.934c-14.16-8.951-28.04-16.445-47.299-26.635c-5.126-2.71,0,0-5.377,1.163
								c-5.706,1.104-9.52,5.289-14.677,7.181l-0.001,19.632c20.247,6.43,45.354,15.482,65.104,23.728l0.065-0.023
								c0.606,10.851,1.975,20.708,2.87,25.112c3.151,15.49,17.019,47.944,20.063,69.193l0.452,1.834
								c9.168,1.412,19.348,1.09,27.658-2.43C216.08,444.993,208.344,442.323,205.347,441.167z"/>
							<g>
								<g>
									<g>
										<path style="fill:#380E16;" d="M221.555,446.593c-8.31,3.52-18.49,3.842-27.658,2.43l0.835,5.16
											c9.598,0.363,20.317,0.619,29.706-1.593c1.15-0.272,5.504-0.9,4.619-3.09
											C228.459,448.016,222.948,446.998,221.555,446.593z"/>
									</g>
								</g>
							</g>
						</g>
						<g>
							<path style="fill:#639AAC;" d="M129.242,343.141c0,0,5.4-25.344,18.931-29.493c9.002-2.763,22.897-3.539,22.897-3.539
								c-5.564-5.636-28.188-26.934-37.25-34.24c-0.547-1.466-1.926-4.533-1.503-8.823c-0.06,0.024-1.109,0.899-1.17,0.925
								c0.16-1.295,1.761-19.222,1.761-19.222c0.644-10.227-0.198-19.525-0.198-19.525c-4.278,1.446-35.339-1.345-35.339-1.345
								c1.13,6.393,0.919,13.124,0.522,19.576c-0.273,4.436-0.02,8.962-1.217,13.291c-0.453,1.637-1.02,3.588-2.421,4.68
								c-1.346,1.049-3.166,1.313-4.824,1.143c-2.137-0.218-1.996-0.572-2.201-0.312c-1.876,2.382-2.822,5.218-3.898,8.007
								c-1.186,3.072-5.012,16.839-5.743,21.021c-2.224,12.716-1.504,27.961,12.169,35.814
								C103.015,338.711,114.542,340.764,129.242,343.141z"/>
							<g>
								<g>
									<g>
										<path style="fill:#82B8C4;" d="M104.641,228.946c-0.153-4.391-0.832-8.701-1.872-12.899
											c-0.403-1.628-1.072-3.44-1.748-4.947c-0.38-0.846-1.003-2.809-1.969-2.681c-0.819,0.108-3.529-0.358-2.852,0.023
											c0.204,0.115,0.496,0.416,0.652,0.84c0.63,1.704,1.379,3.505,1.89,5.322c1.071,3.799,1.648,7.767,1.907,11.751
											c0.113,1.737,0.162,3.462,0.101,5.2c-0.056,1.614,1.013,3.578,2.685,2.57
											C104.879,233.257,104.695,230.492,104.641,228.946z"/>
									</g>
									<g>
										<path style="fill:#DBA52C;" d="M104.029,231.248c-0.022,0.56-0.494,0.995-1.054,0.973
											c-0.56-0.022-0.995-0.494-0.973-1.054c0.022-0.56,0.494-0.995,1.054-0.973
											C103.615,230.216,104.051,230.688,104.029,231.248z"/>
									</g>
								</g>
								<g>
									<g>
										<path style="fill:#82B8C4;" d="M131.105,229.293c-0.167-4.019-0.862-7.966-1.915-11.812
											c-0.408-1.491-1.083-3.152-1.764-4.533c-0.383-0.776-1.013-2.574-1.978-2.461c-0.819,0.096-3.529-0.34-2.851,0.012
											c0.205,0.106,0.497,0.383,0.655,0.771c0.636,1.562,1.39,3.213,1.908,4.877c1.083,3.481,1.674,7.114,1.946,10.761
											c0.119,1.59,0.173,3.169,0.119,4.759c-0.051,1.477,1.025,3.278,2.694,2.361
											C131.357,233.238,131.164,230.708,131.105,229.293z"/>
									</g>
									<g>
										<path style="fill:#DBA52C;" d="M130.459,231.4c-0.022,0.56-0.494,0.995-1.054,0.973c-0.56-0.022-0.995-0.494-0.973-1.054
											s0.494-0.995,1.054-0.973C130.046,230.369,130.481,230.841,130.459,231.4z"/>
									</g>
								</g>
							</g>
							<g>
								<g>
									<path style="fill:#43808E;" d="M86.484,276.855c-1.443,6.647-2.167,13.532-1.024,20.215
										c1.08,6.658,4.01,13.014,8.605,17.954c4.5,5.032,10.334,8.736,16.519,11.465c3.098,1.375,6.313,2.496,9.587,3.411
										c3.267,0.947,6.604,1.649,9.966,2.227c-6.782-0.731-13.508-2.312-19.855-4.931c-6.328-2.618-12.283-6.393-16.958-11.504
										c-4.654-5.119-7.685-11.681-8.62-18.506c-0.471-3.41-0.535-6.87-0.186-10.279C84.889,283.5,85.557,280.139,86.484,276.855z
										"/>
								</g>
								<g>
									<path style="fill:#43808E;" d="M120.897,293.951c2.451,1.171,4.924,2.254,7.451,3.188c2.53,0.922,5.091,1.751,7.696,2.415
										c2.599,0.687,5.239,1.21,7.898,1.631c1.33,0.21,2.669,0.37,4.013,0.496l2.02,0.182l2.03,0.125
										c-1.352,0.135-2.713,0.169-4.075,0.182c-1.361-0.028-2.722-0.103-4.081-0.222c-2.718-0.246-5.41-0.752-8.055-1.428
										c-2.639-0.699-5.236-1.568-7.731-2.673C125.564,296.755,123.145,295.481,120.897,293.951z"/>
								</g>
								<g>
									<path style="fill:#43808E;" d="M88.157,273.242c1.761,0.191,3.516,0.39,5.278,0.539c1.757,0.178,3.515,0.338,5.275,0.463
										c3.519,0.261,7.038,0.476,10.558,0.534c3.519,0.093,7.042,0.038,10.541-0.264c0.878-0.059,1.754-0.131,2.62-0.275
										c0.865-0.142,1.75-0.202,2.602-0.412c0.856-0.187,1.727-0.34,2.58-0.556c0.834-0.274,1.676-0.536,2.527-0.794
										c-3.18,1.609-6.733,2.322-10.246,2.801c-1.763,0.278-3.541,0.336-5.316,0.465c-1.776,0.032-3.554,0.088-5.329,0.033
										c-3.55-0.084-7.094-0.326-10.612-0.771C95.117,274.574,91.61,274.038,88.157,273.242z"/>
								</g>
							</g>
						</g>
					</g>
				</g>
			</g>
			<g>
				<g>
					<g>
						<path style="fill:#B2B2B2;" d="M357.366,214.962c0,1.995-1.618,3.612-3.612,3.612h-39.694c-1.995,0-3.612-1.617-3.612-3.612
							V184c0-1.994,1.617-3.612,3.612-3.612h39.694c1.994,0,3.612,1.617,3.612,3.612V214.962z"/>
						<path style="fill:#ABD7FF;" d="M312.138,191.043v22.804c0,1.852,1.5,3.352,3.351,3.352h36.835c1.851,0,3.352-1.5,3.352-3.352
							v-22.804H312.138z"/>
						<rect x="320.901" y="184.37" style="fill:#878787;" width="34.041" height="2.786"/>
						<path style="fill:#878787;" d="M312.082,185.542c0-1.869,1.515-3.384,3.383-3.384c1.87,0,3.385,1.515,3.385,3.384
							c0,1.869-1.515,3.384-3.385,3.384C313.597,188.926,312.082,187.411,312.082,185.542z"/>
						<path style="fill:#B2B2B2;" d="M316.211,185.542l0.955-0.955c0.206-0.206,0.206-0.539,0-0.745
							c-0.205-0.206-0.539-0.206-0.745,0l-0.955,0.955l-0.954-0.955c-0.206-0.206-0.539-0.206-0.745,0
							c-0.206,0.206-0.206,0.539,0,0.745l0.954,0.955l-0.954,0.955c-0.206,0.206-0.206,0.539,0,0.745
							c0.103,0.103,0.237,0.155,0.373,0.155c0.134,0,0.27-0.051,0.373-0.155l0.954-0.955l0.955,0.955
							c0.104,0.103,0.238,0.155,0.374,0.155c0.134,0,0.269-0.051,0.372-0.155c0.206-0.206,0.206-0.539,0-0.745L316.211,185.542z"/>
					</g>
					<g>
						
							<rect x="323.2" y="197.196" transform="matrix(0.9909 -0.1343 0.1343 0.9909 -24.4421 46.9511)" style="opacity:0.5;fill:#ABD7FF;" width="25.209" height="14.914"/>
						<g>
							
								<rect x="321.602" y="196.131" transform="matrix(0.9909 -0.1343 0.1343 0.9909 -24.3135 46.7267)" style="fill:#FFFFFF;" width="25.209" height="14.914"/>
							<g>
								<defs>
									
										<rect id="SVGID_3_" x="321.602" y="196.131" transform="matrix(0.9909 -0.1343 0.1343 0.9909 -24.3135 46.7267)" width="25.209" height="14.914"/>
								</defs>
								<clipPath id="SVGID_00000161611100117663310280000011523924080144363182_">
									<use xlink:href="#SVGID_3_"  style="overflow:visible;"/>
								</clipPath>
								<g style="clip-path:url(#SVGID_00000161611100117663310280000011523924080144363182_);">
									<polyline style="fill:none;stroke:#8393C4;stroke-width:0.5;stroke-miterlimit:10;" points="317.625,196.577 
										334.674,207.037 347.16,193.416 									"/>
									
										<line style="fill:none;stroke:#8393C4;stroke-width:0.5;stroke-miterlimit:10;" x1="329.711" y1="203.992" x2="322.452" y2="212.988"/>
									
										<line style="fill:none;stroke:#8393C4;stroke-width:0.5;stroke-miterlimit:10;" x1="338.502" y1="202.801" x2="347.893" y2="209.541"/>
								</g>
							</g>
						</g>
					</g>
					<circle style="fill:#C13333;" cx="347.313" cy="196.226" r="3.469"/>
				</g>
				<g>
					<g>
						<path style="fill:#B2B2B2;" d="M349.737,104.414c0,1.995-1.618,3.612-3.612,3.612h-39.694c-1.995,0-3.612-1.617-3.612-3.612
							V73.452c0-1.994,1.617-3.611,3.612-3.611h39.694c1.994,0,3.612,1.617,3.612,3.611V104.414z"/>
						<path style="fill:#DBF0FF;" d="M304.51,80.495v22.804c0,1.852,1.5,3.352,3.351,3.352h36.835c1.851,0,3.352-1.5,3.352-3.352
							V80.495H304.51z"/>
						<rect x="313.272" y="73.822" style="fill:#878787;" width="34.041" height="2.786"/>
						<path style="fill:#878787;" d="M304.454,74.994c0-1.869,1.515-3.384,3.383-3.384c1.87,0,3.385,1.515,3.385,3.384
							c0,1.869-1.515,3.384-3.385,3.384C305.969,78.378,304.454,76.863,304.454,74.994z"/>
						<path style="fill:#B2B2B2;" d="M308.582,74.994l0.955-0.955c0.206-0.206,0.206-0.539,0-0.745
							c-0.205-0.206-0.539-0.206-0.745,0l-0.955,0.955l-0.954-0.955c-0.206-0.206-0.539-0.206-0.745,0
							c-0.206,0.206-0.206,0.539,0,0.745l0.954,0.955l-0.954,0.955c-0.206,0.206-0.206,0.539,0,0.745
							c0.103,0.103,0.237,0.155,0.373,0.155c0.135,0,0.27-0.051,0.373-0.155l0.954-0.955l0.955,0.955
							c0.104,0.103,0.238,0.155,0.374,0.155c0.133,0,0.269-0.051,0.372-0.155c0.206-0.206,0.206-0.539,0-0.745L308.582,74.994z"/>
					</g>
					<g>
						<path style="opacity:0.5;fill:#ABD7FF;" d="M335.755,103.569l-0.161-0.055c-0.024-0.014-0.05-0.023-0.08-0.027l-4.014-1.362
							c-0.114-0.037-0.237,0.022-0.276,0.136c-0.039,0.114,0.022,0.237,0.136,0.276l2.784,0.945h-17.97l4.383-7.912l3.52,4.02
							c0.049,0.056,0.123,0.084,0.196,0.072c0.073-0.011,0.136-0.059,0.166-0.127l3.348-7.571l2.588,3.363
							c0.046,0.06,0.125,0.093,0.195,0.084c0.075-0.008,0.141-0.054,0.174-0.122l4.102-8.557l-0.394,3.039
							c-0.015,0.119,0.069,0.228,0.188,0.244c0.009,0.001,0.019,0.002,0.028,0.002c0.107,0,0.201-0.08,0.215-0.189l0.572-4.41
							c0.012-0.094-0.038-0.185-0.123-0.224c-0.085-0.041-0.187-0.021-0.251,0.048l-3.065,3.285
							c-0.082,0.087-0.077,0.225,0.011,0.307c0.087,0.082,0.226,0.077,0.307-0.01l2.116-2.267l-3.944,8.228l-2.596-3.373
							c-0.047-0.061-0.124-0.095-0.198-0.083c-0.076,0.009-0.142,0.058-0.173,0.128l-3.358,7.594l-3.499-3.996
							c-0.047-0.054-0.112-0.081-0.187-0.073c-0.07,0.008-0.132,0.049-0.167,0.111l-4.304,7.769V86.546l0.867,2.855
							c0.035,0.115,0.155,0.18,0.271,0.145c0.115-0.035,0.179-0.156,0.145-0.271l-1.292-4.255c-0.028-0.09-0.11-0.152-0.205-0.154
							c-0.085,0.002-0.179,0.058-0.209,0.147l-1.444,4.255c-0.039,0.114,0.022,0.237,0.136,0.276
							c0.023,0.008,0.047,0.011,0.07,0.011c0.09,0,0.175-0.057,0.206-0.147l1.021-3.008v17.3c0,0.01,0.004,0.019,0.006,0.028
							c0.002,0.015,0.004,0.029,0.009,0.043c0.005,0.014,0.012,0.025,0.019,0.038c0.007,0.012,0.013,0.023,0.022,0.033
							c0.01,0.012,0.022,0.021,0.035,0.03c0.008,0.006,0.013,0.013,0.021,0.018c0.003,0.002,0.006,0.001,0.009,0.002
							c0.029,0.015,0.061,0.025,0.096,0.025h18.666l-3.105,0.943c-0.115,0.035-0.18,0.156-0.145,0.271
							c0.028,0.094,0.115,0.154,0.208,0.154c0.021,0,0.042-0.003,0.063-0.009l4.255-1.292c0.09-0.028,0.152-0.11,0.154-0.205
							C335.904,103.684,335.844,103.6,335.755,103.569z"/>
						<path style="fill:#8393C4;" d="M337.011,102.313l-0.161-0.055c-0.024-0.014-0.051-0.023-0.08-0.027l-4.014-1.362
							c-0.114-0.037-0.237,0.022-0.276,0.136c-0.039,0.114,0.022,0.237,0.136,0.276l2.784,0.945h-17.97l4.383-7.912l3.52,4.02
							c0.049,0.056,0.123,0.084,0.196,0.072c0.073-0.011,0.136-0.059,0.166-0.127l3.348-7.571l2.588,3.363
							c0.046,0.06,0.125,0.093,0.195,0.084c0.075-0.008,0.141-0.054,0.174-0.122l4.102-8.557l-0.394,3.039
							c-0.015,0.119,0.069,0.228,0.188,0.243c0.009,0.001,0.019,0.002,0.028,0.002c0.107,0,0.201-0.08,0.215-0.189l0.572-4.41
							c0.012-0.094-0.038-0.185-0.123-0.225c-0.085-0.041-0.187-0.021-0.251,0.048l-3.065,3.285
							c-0.082,0.087-0.077,0.225,0.011,0.307c0.088,0.082,0.226,0.077,0.307-0.011l2.116-2.267l-3.944,8.228l-2.596-3.373
							c-0.047-0.061-0.124-0.095-0.198-0.083c-0.076,0.009-0.142,0.058-0.173,0.128l-3.358,7.594l-3.499-3.996
							c-0.047-0.053-0.112-0.081-0.187-0.073c-0.07,0.008-0.132,0.049-0.167,0.111l-4.304,7.769V85.29l0.867,2.854
							c0.035,0.115,0.155,0.18,0.271,0.145c0.115-0.035,0.18-0.156,0.145-0.271l-1.292-4.255c-0.028-0.09-0.11-0.152-0.204-0.154
							c-0.085,0.002-0.179,0.058-0.209,0.147l-1.444,4.255c-0.039,0.114,0.022,0.237,0.136,0.276
							c0.023,0.008,0.047,0.011,0.07,0.011c0.09,0,0.175-0.057,0.206-0.147l1.021-3.008v17.3c0,0.01,0.004,0.019,0.006,0.028
							c0.002,0.015,0.004,0.029,0.009,0.043c0.005,0.014,0.012,0.025,0.019,0.038c0.007,0.012,0.013,0.023,0.022,0.033
							c0.01,0.012,0.022,0.02,0.035,0.03c0.008,0.006,0.013,0.014,0.021,0.018c0.003,0.001,0.006,0.001,0.009,0.002
							c0.029,0.015,0.061,0.025,0.096,0.025h18.666l-3.105,0.943c-0.115,0.035-0.179,0.156-0.145,0.271
							c0.028,0.094,0.115,0.154,0.208,0.154c0.021,0,0.042-0.003,0.063-0.009l4.255-1.292c0.09-0.028,0.152-0.11,0.154-0.205
							C337.159,102.428,337.1,102.344,337.011,102.313z"/>
					</g>
				</g>
				<g>
					<g>
						<g>
							<path style="fill:#B1B1B1;" d="M247.339,132.263c0,2.193-1.778,3.97-3.971,3.97h-43.639c-2.193,0-3.971-1.777-3.971-3.97
								V98.223c0-2.193,1.777-3.971,3.971-3.971h43.639c2.192,0,3.971,1.778,3.971,3.971V132.263z"/>
							<path style="fill:#AAD6FF;" d="M197.616,105.966v25.07c0,2.036,1.649,3.685,3.684,3.685h40.496
								c2.035,0,3.685-1.649,3.685-3.685v-25.07H197.616z"/>
							<rect x="207.249" y="98.63" style="fill:#868686;" width="37.424" height="3.063"/>
							<path style="fill:#868686;" d="M197.554,99.919c0-2.055,1.665-3.72,3.719-3.72c2.056,0,3.721,1.666,3.721,3.72
								c0,2.055-1.665,3.721-3.721,3.721C199.22,103.64,197.554,101.974,197.554,99.919z"/>
							<path style="fill:#B1B1B1;" d="M202.093,99.919l1.05-1.05c0.227-0.226,0.227-0.593,0-0.819c-0.226-0.227-0.592-0.227-0.819,0
								l-1.05,1.05l-1.049-1.05c-0.226-0.227-0.593-0.227-0.819,0c-0.226,0.226-0.226,0.593,0,0.819l1.049,1.05l-1.049,1.05
								c-0.226,0.226-0.226,0.593,0,0.819c0.113,0.114,0.261,0.17,0.41,0.17c0.148,0,0.297-0.057,0.41-0.17l1.049-1.05l1.05,1.05
								c0.114,0.114,0.262,0.17,0.411,0.17c0.147,0,0.296-0.057,0.409-0.17c0.227-0.226,0.227-0.593,0-0.819L202.093,99.919z"/>
						</g>
					</g>
					<g>
						<path style="opacity:0.5;fill:#AAD6FF;" d="M231.274,116.051h-6.513v-3.363c0-1.485-1.274-2.69-2.846-2.69h-11.143
							c-1.571,0-2.845,1.205-2.845,2.69v6.726c0,1.486,1.274,2.69,2.845,2.69h2.864c-0.055,1.665-1.27,3.576-2.646,4.035
							c1.266,0.605,3.467-0.605,4.017-1.651c0.304-0.574,0.586-1.522,0.657-2.384h1.621v3.363c0,1.486,1.274,2.69,2.846,2.69h4.191
							c0.04,0.913,0.338,1.962,0.665,2.582c0.55,1.046,2.751,2.256,4.017,1.651c-1.43-0.477-2.685-2.524-2.643-4.232h4.913
							c1.571,0,2.845-1.204,2.845-2.69v-6.726C234.119,117.255,232.845,116.051,231.274,116.051z"/>
						<g>
							<g>
								<path style="fill:#DBF0FF;" d="M224.018,108.421h-11.143c-1.571,0-2.845,1.205-2.845,2.69v6.726
									c0,1.485,1.274,2.69,2.845,2.69h2.864c-0.055,1.665-1.27,3.576-2.646,4.035c1.266,0.605,3.467-0.605,4.017-1.651
									c0.304-0.574,0.586-1.522,0.657-2.384h6.252c1.572,0,2.846-1.204,2.846-2.69v-6.726
									C226.864,109.626,225.59,108.421,224.018,108.421z"/>
								<g>
									<path style="fill:#B6CEDD;" d="M212.957,112.377h10.979c0.182,0,0.329-0.147,0.329-0.328c0-0.181-0.147-0.328-0.329-0.328
										h-10.979c-0.181,0-0.328,0.147-0.328,0.328C212.629,112.23,212.776,112.377,212.957,112.377z"/>
									<path style="fill:#B6CEDD;" d="M223.936,113.337h-10.979c-0.181,0-0.328,0.147-0.328,0.328
										c0,0.182,0.147,0.329,0.328,0.329h10.979c0.182,0,0.329-0.147,0.329-0.329
										C224.264,113.484,224.117,113.337,223.936,113.337z"/>
									<path style="fill:#B6CEDD;" d="M223.936,114.954h-10.979c-0.181,0-0.328,0.147-0.328,0.329
										c0,0.181,0.147,0.328,0.328,0.328h10.979c0.182,0,0.329-0.147,0.329-0.328
										C224.264,115.101,224.117,114.954,223.936,114.954z"/>
									<path style="fill:#B6CEDD;" d="M223.936,116.57h-10.979c-0.181,0-0.328,0.147-0.328,0.329c0,0.181,0.147,0.328,0.328,0.328
										h10.979c0.182,0,0.329-0.147,0.329-0.328C224.264,116.718,224.117,116.57,223.936,116.57z"/>
								</g>
							</g>
							<g>
								<path style="fill:#FFB5D3;" d="M233.376,114.474h-11.143c-1.572,0-2.846,1.204-2.846,2.69v6.726
									c0,1.486,1.274,2.69,2.846,2.69h4.191c0.04,0.913,0.338,1.962,0.665,2.582c0.55,1.046,2.751,2.256,4.017,1.651
									c-1.43-0.477-2.685-2.524-2.643-4.232h4.913c1.571,0,2.845-1.204,2.845-2.69v-6.726
									C236.222,115.678,234.947,114.474,233.376,114.474z"/>
								<g>
									<path style="fill:#DB83AB;" d="M222.44,118.485h10.979c0.181,0,0.328-0.147,0.328-0.328c0-0.182-0.147-0.329-0.328-0.329
										H222.44c-0.182,0-0.329,0.147-0.329,0.329C222.111,118.338,222.258,118.485,222.44,118.485z"/>
									<path style="fill:#DB83AB;" d="M233.419,119.445H222.44c-0.182,0-0.329,0.147-0.329,0.328c0,0.182,0.147,0.329,0.329,0.329
										h10.979c0.181,0,0.328-0.147,0.328-0.329C233.747,119.592,233.6,119.445,233.419,119.445z"/>
									<path style="fill:#DB83AB;" d="M233.419,121.062H222.44c-0.182,0-0.329,0.147-0.329,0.329c0,0.181,0.147,0.328,0.329,0.328
										h10.979c0.181,0,0.328-0.147,0.328-0.328C233.747,121.209,233.6,121.062,233.419,121.062z"/>
									<path style="fill:#DB83AB;" d="M233.419,122.679H222.44c-0.182,0-0.329,0.147-0.329,0.329c0,0.181,0.147,0.328,0.329,0.328
										h10.979c0.181,0,0.328-0.147,0.328-0.328C233.747,122.826,233.6,122.679,233.419,122.679z"/>
								</g>
							</g>
						</g>
					</g>
					<path style="fill:#C13333;" d="M239.418,113.319c0,1.765-1.431,3.196-3.197,3.196s-3.197-1.431-3.197-3.196
						c0-1.765,1.431-3.197,3.197-3.197S239.418,111.554,239.418,113.319z"/>
				</g>
				<g>
					<g>
						<path style="fill:#B1B1B1;" d="M309.099,173.229c0,1.995-1.617,3.611-3.612,3.611h-27.261c-1.995,0-3.611-1.616-3.611-3.611
							v-40.526c0-1.994,1.617-3.612,3.611-3.612h27.261c1.994,0,3.612,1.617,3.612,3.612V173.229z"/>
						<path style="fill:#DBBDEC;" d="M276.305,139.747v32.368c0,1.852,1.5,3.352,3.351,3.352h24.403c1.851,0,3.352-1.5,3.352-3.352
							v-32.368H276.305z"/>
						<rect x="285.068" y="133.073" style="fill:#868686;" width="21.607" height="2.786"/>
						<path style="fill:#868686;" d="M276.249,134.246c0-1.869,1.515-3.384,3.383-3.384c1.869,0,3.385,1.515,3.385,3.384
							s-1.515,3.384-3.385,3.384C277.763,137.63,276.249,136.115,276.249,134.246z"/>
						<path style="fill:#B1B1B1;" d="M280.377,134.246l0.955-0.955c0.207-0.206,0.207-0.539,0-0.745
							c-0.205-0.206-0.539-0.206-0.745,0l-0.955,0.955l-0.955-0.955c-0.206-0.206-0.539-0.206-0.745,0
							c-0.205,0.206-0.205,0.539,0,0.745l0.955,0.955l-0.955,0.955c-0.205,0.206-0.205,0.539,0,0.745
							c0.102,0.103,0.238,0.155,0.373,0.155c0.134,0,0.27-0.051,0.373-0.155l0.955-0.955l0.955,0.955
							c0.104,0.103,0.238,0.155,0.374,0.155c0.134,0,0.269-0.051,0.372-0.155c0.207-0.206,0.207-0.54,0-0.745L280.377,134.246z"/>
					</g>
					<g>
						<path style="opacity:0.4;fill:#AAD6FF;" d="M297.675,149.572h-11.397c-0.528,0-0.956,0.428-0.956,0.956v1.514h-1.195
							c-0.528,0-0.956,0.428-0.956,0.956v14.186c0,0.528,0.428,0.956,0.956,0.956h11.397c0.528,0,0.956-0.428,0.956-0.956v-1.514
							h1.195c0.528,0,0.956-0.429,0.956-0.956v-14.186C298.631,150,298.203,149.572,297.675,149.572z"/>
						<g>
							<path style="fill:#DBF0FF;" d="M299.588,161.367c0,0.528-0.428,0.956-0.956,0.956h-11.397c-0.528,0-0.956-0.429-0.956-0.956
								v-14.186c0-0.528,0.428-0.956,0.956-0.956h11.397c0.528,0,0.956,0.428,0.956,0.956V161.367z"/>
							<g>
								<path style="fill:#FFFFFF;" d="M297.436,163.837c0,0.528-0.428,0.956-0.956,0.956h-11.397c-0.528,0-0.956-0.428-0.956-0.956
									v-14.186c0-0.528,0.428-0.956,0.956-0.956h11.397c0.528,0,0.956,0.428,0.956,0.956V163.837z"/>
								<g>
									<path style="fill:#D6D6D6;" d="M285.673,151.569h9.742c0.161,0,0.291-0.13,0.291-0.291s-0.131-0.291-0.291-0.291h-9.742
										c-0.161,0-0.291,0.13-0.291,0.291S285.512,151.569,285.673,151.569z"/>
									<path style="fill:#D6D6D6;" d="M295.415,152.421h-9.742c-0.161,0-0.291,0.13-0.291,0.291c0,0.161,0.13,0.291,0.291,0.291
										h9.742c0.161,0,0.291-0.13,0.291-0.291C295.707,152.551,295.576,152.421,295.415,152.421z"/>
									<path style="fill:#D6D6D6;" d="M295.415,153.855h-9.742c-0.161,0-0.291,0.13-0.291,0.291s0.13,0.291,0.291,0.291h9.742
										c0.161,0,0.291-0.13,0.291-0.291S295.576,153.855,295.415,153.855z"/>
									<path style="fill:#D6D6D6;" d="M295.415,155.29h-9.742c-0.161,0-0.291,0.13-0.291,0.291c0,0.161,0.13,0.291,0.291,0.291
										h9.742c0.161,0,0.291-0.131,0.291-0.291C295.707,155.42,295.576,155.29,295.415,155.29z"/>
									<path style="fill:#D6D6D6;" d="M295.415,156.724h-9.742c-0.161,0-0.291,0.131-0.291,0.291c0,0.161,0.13,0.291,0.291,0.291
										h9.742c0.161,0,0.291-0.131,0.291-0.291C295.707,156.855,295.576,156.724,295.415,156.724z"/>
									<path style="fill:#D6D6D6;" d="M295.415,158.159h-9.742c-0.161,0-0.291,0.131-0.291,0.291c0,0.161,0.13,0.291,0.291,0.291
										h9.742c0.161,0,0.291-0.131,0.291-0.291C295.707,158.29,295.576,158.159,295.415,158.159z"/>
									<path style="fill:#D6D6D6;" d="M295.415,159.594h-9.742c-0.161,0-0.291,0.131-0.291,0.291s0.13,0.291,0.291,0.291h9.742
										c0.161,0,0.291-0.131,0.291-0.291S295.576,159.594,295.415,159.594z"/>
									<path style="fill:#D6D6D6;" d="M295.415,161.028h-9.742c-0.161,0-0.291,0.131-0.291,0.291c0,0.161,0.13,0.291,0.291,0.291
										h9.742c0.161,0,0.291-0.131,0.291-0.291C295.707,161.159,295.576,161.028,295.415,161.028z"/>
									<path style="fill:#D6D6D6;" d="M295.415,162.463h-9.742c-0.161,0-0.291,0.131-0.291,0.291c0,0.161,0.13,0.291,0.291,0.291
										h9.742c0.161,0,0.291-0.131,0.291-0.291C295.707,162.593,295.576,162.463,295.415,162.463z"/>
								</g>
							</g>
						</g>
					</g>
				</g>
				<g>
					<g>
						<g>
							<path style="fill:#B1B1B1;" d="M259.98,215.176c0,1.995-1.618,3.612-3.612,3.612h-39.695c-1.995,0-3.611-1.617-3.611-3.612
								v-30.962c0-1.995,1.617-3.612,3.611-3.612h39.695c1.994,0,3.612,1.617,3.612,3.612V215.176z"/>
							<path style="fill:#FFE476;" d="M214.752,191.257v22.804c0,1.852,1.5,3.352,3.351,3.352h36.836c1.851,0,3.352-1.5,3.352-3.352
								v-22.804H214.752z"/>
							<rect x="223.514" y="184.583" style="fill:#868686;" width="34.041" height="2.786"/>
							<path style="fill:#868686;" d="M214.696,185.756c0-1.869,1.515-3.384,3.383-3.384c1.87,0,3.385,1.515,3.385,3.384
								c0,1.869-1.515,3.384-3.385,3.384C216.211,189.14,214.696,187.625,214.696,185.756z"/>
							<path style="fill:#B1B1B1;" d="M218.824,185.756l0.956-0.955c0.206-0.206,0.206-0.539,0-0.745
								c-0.206-0.206-0.539-0.206-0.745,0l-0.956,0.955l-0.954-0.955c-0.206-0.206-0.539-0.206-0.745,0
								c-0.206,0.206-0.206,0.539,0,0.745l0.954,0.955l-0.954,0.955c-0.206,0.206-0.206,0.539,0,0.745
								c0.103,0.103,0.237,0.155,0.373,0.155c0.135,0,0.27-0.051,0.373-0.155l0.954-0.955l0.956,0.955
								c0.104,0.103,0.238,0.155,0.374,0.155c0.134,0,0.269-0.051,0.372-0.155c0.206-0.206,0.206-0.539,0-0.745L218.824,185.756z"/>
						</g>
					</g>
					<g>
						<path style="opacity:0.5;fill:#AAD6FF;" d="M241.658,212.341h-0.988c0.006-1.679,0.041-3.024-0.86-4.569
							c-0.693-1.166-1.738-1.716-2.935-1.959c-0.157-0.638-0.23-1.341-0.005-1.887c0.067-0.185,0.184-0.344,0.317-0.498
							c2.82-0.521,3.824-4.047,3.386-6.622h1.087c0.3,0,0.543-0.243,0.543-0.543c0-0.3-0.243-0.543-0.543-0.543h-11.673
							c-0.3,0-0.543,0.243-0.543,0.543c0,0.3,0.243,0.543,0.543,0.543h0.988c-0.006,1.679-0.041,3.024,0.861,4.569
							c0.693,1.166,1.738,1.716,2.935,1.959c0.157,0.638,0.23,1.341,0.005,1.887c-0.067,0.185-0.184,0.344-0.317,0.498
							c-2.82,0.521-3.824,4.047-3.386,6.622h-1.086c-0.3,0-0.543,0.243-0.543,0.543c0,0.3,0.243,0.543,0.543,0.543h11.673
							c0.3,0,0.543-0.243,0.543-0.543C242.201,212.584,241.958,212.341,241.658,212.341z"/>
						<g>
							<g>
								<path style="fill:#FFFFFF;" d="M241.244,207.294c-0.693-1.166-1.738-1.716-2.935-1.959c-0.157-0.638-0.23-1.341-0.005-1.887
									c0.067-0.185,0.184-0.344,0.317-0.498c2.836-0.524,3.837-4.089,3.379-6.668c0-0.136-0.09-0.452-0.09-0.498l-9.501,0.272
									c0,1.81-0.09,3.212,0.86,4.841c0.693,1.166,1.738,1.716,2.935,1.959c0.157,0.638,0.23,1.341,0.005,1.887
									c-0.067,0.185-0.184,0.344-0.317,0.498c-2.836,0.524-3.837,4.089-3.38,6.668c0,0.135,0.09,0.452,0.09,0.498l9.501-0.272
									C242.104,210.324,242.194,208.923,241.244,207.294z"/>
							</g>
							<path style="fill:#D1A537;" d="M243.635,195.785c0,0.3-0.243,0.543-0.543,0.543H231.42c-0.3,0-0.543-0.243-0.543-0.543l0,0
								c0-0.3,0.243-0.543,0.543-0.543h11.673C243.392,195.242,243.635,195.485,243.635,195.785L243.635,195.785z"/>
							<path style="fill:#D1A537;" d="M243.635,212.406c0,0.3-0.243,0.543-0.543,0.543H231.42c-0.3,0-0.543-0.243-0.543-0.543l0,0
								c0-0.3,0.243-0.543,0.543-0.543h11.673C243.392,211.863,243.635,212.106,243.635,212.406L243.635,212.406z"/>
						</g>
					</g>
				</g>
				<g style="opacity:0.5;">
					<line style="fill:none;stroke:#8393C4;stroke-miterlimit:10;" x1="64.977" y1="235.381" x2="64.977" y2="241.706"/>
					<line style="fill:none;stroke:#8393C4;stroke-miterlimit:10;" x1="64.977" y1="249.177" x2="64.977" y2="255.502"/>
					<line style="fill:none;stroke:#8393C4;stroke-miterlimit:10;" x1="75.038" y1="245.442" x2="68.714" y2="245.442"/>
					<line style="fill:none;stroke:#8393C4;stroke-miterlimit:10;" x1="61.241" y1="245.442" x2="54.917" y2="245.442"/>
					<line style="fill:none;stroke:#8393C4;stroke-miterlimit:10;" x1="72.092" y1="238.327" x2="67.619" y2="242.8"/>
					<line style="fill:none;stroke:#8393C4;stroke-miterlimit:10;" x1="62.336" y1="248.083" x2="57.863" y2="252.556"/>
					<line style="fill:none;stroke:#8393C4;stroke-miterlimit:10;" x1="72.092" y1="252.556" x2="67.619" y2="248.083"/>
					<line style="fill:none;stroke:#8393C4;stroke-miterlimit:10;" x1="62.336" y1="242.8" x2="57.863" y2="238.327"/>
				</g>
				<g>
					<g style="opacity:0.5;">
						<path style="fill:none;stroke:#8393C4;stroke-linecap:round;stroke-linejoin:round;stroke-miterlimit:10;" d="
							M364.507,184.148c-0.001,0.006-0.003,0.012-0.004,0.018l9.442,1.326"/>
						<path style="fill:none;stroke:#8393C4;stroke-linecap:round;stroke-linejoin:round;stroke-miterlimit:10;" d="
							M364.507,184.148"/>
						
							<line style="fill:none;stroke:#8393C4;stroke-linecap:round;stroke-linejoin:round;stroke-miterlimit:10;" x1="371.025" y1="173.615" x2="363.209" y2="179.506"/>
						
							<line style="fill:none;stroke:#8393C4;stroke-linecap:round;stroke-linejoin:round;stroke-miterlimit:10;" x1="360.412" y1="167.536" x2="359.04" y2="177.303"/>
					</g>
					<g style="opacity:0.5;">
						<path style="fill:none;stroke:#8393C4;stroke-linecap:round;stroke-linejoin:round;stroke-miterlimit:10;" d="M195.661,89.807
							c0.006,0,0.012,0,0.018-0.001l-0.845-9.497"/>
						<path style="fill:none;stroke:#8393C4;stroke-linecap:round;stroke-linejoin:round;stroke-miterlimit:10;" d="M195.661,89.807
							"/>
						
							<line style="fill:none;stroke:#8393C4;stroke-linecap:round;stroke-linejoin:round;stroke-miterlimit:10;" x1="183.926" y1="85.842" x2="191.434" y2="92.122"/>
						
							<line style="fill:none;stroke:#8393C4;stroke-linecap:round;stroke-linejoin:round;stroke-miterlimit:10;" x1="180.407" y1="97.556" x2="190.231" y2="96.681"/>
					</g>
					<path style="opacity:0.5;fill:none;stroke:#8393C4;stroke-linecap:round;stroke-linejoin:round;stroke-miterlimit:10;" d="
						M169.799,136.979c0-2.669,2.163-4.832,4.832-4.832c2.669,0,4.832,2.163,4.832,4.832c0,2.669-2.163,4.832-4.832,4.832
						C171.962,141.811,169.799,139.647,169.799,136.979z"/>
					
						<circle style="opacity:0.5;fill:none;stroke:#8393C4;stroke-linecap:round;stroke-linejoin:round;stroke-miterlimit:10;" cx="361.487" cy="126.712" r="10.452"/>
					<g style="opacity:0.5;">
						
							<line style="fill:none;stroke:#8393C4;stroke-linecap:round;stroke-linejoin:round;stroke-miterlimit:10;" x1="275.379" y1="95.971" x2="275.379" y2="99.762"/>
						
							<line style="fill:none;stroke:#8393C4;stroke-linecap:round;stroke-linejoin:round;stroke-miterlimit:10;" x1="275.379" y1="104.239" x2="275.379" y2="108.03"/>
						
							<line style="fill:none;stroke:#8393C4;stroke-linecap:round;stroke-linejoin:round;stroke-miterlimit:10;" x1="281.408" y1="102" x2="277.618" y2="102"/>
						
							<line style="fill:none;stroke:#8393C4;stroke-linecap:round;stroke-linejoin:round;stroke-miterlimit:10;" x1="273.14" y1="102" x2="269.35" y2="102"/>
						
							<line style="fill:none;stroke:#8393C4;stroke-linecap:round;stroke-linejoin:round;stroke-miterlimit:10;" x1="279.643" y1="97.737" x2="276.962" y2="100.417"/>
						
							<line style="fill:none;stroke:#8393C4;stroke-linecap:round;stroke-linejoin:round;stroke-miterlimit:10;" x1="273.796" y1="103.584" x2="271.116" y2="106.265"/>
						
							<line style="fill:none;stroke:#8393C4;stroke-linecap:round;stroke-linejoin:round;stroke-miterlimit:10;" x1="279.643" y1="106.265" x2="276.962" y2="103.584"/>
						
							<line style="fill:none;stroke:#8393C4;stroke-linecap:round;stroke-linejoin:round;stroke-miterlimit:10;" x1="273.796" y1="100.417" x2="271.116" y2="97.737"/>
					</g>
				</g>
			</g>
		</g>
	</g>
</g>
</svg>
